<?xml version="1.0" encoding="UTF-8"?>
<svg id="Layer_1" data-name="Layer 1" xmlns="http://www.w3.org/2000/svg" viewBox="0 0 360 144">
  <path d="M115.453,86.403v8.48h-24.23v-38.547h23.955v8.48h-15.144v6.387h13.767v8.37h-13.767v6.83h15.419Z" fill="#1c9ed6"/>
  <path d="M136.928,94.883l-5.121-7.27-5.121,7.27h-9.472l9.857-13.988-9.528-13.547h9.473l4.79,6.83,4.791-6.83h9.472l-9.527,13.547,9.857,13.988h-9.473Z" fill="#1c9ed6"/>
  <path d="M160.382,75.277v9.748c0,2.368,2.038,2.587,5.672,2.368v7.489c-10.793,1.102-13.932-2.147-13.932-9.857v-9.748h-4.405v-7.93h4.405v-5.231l8.26-2.478v7.709h5.672v7.93h-5.672Z" fill="#1c9ed6"/>
  <path d="M185.895,66.797v9.361c-3.415-.55-8.261.827-8.261,6.279v12.445h-8.26v-27.535h8.26v4.902c1.101-3.69,4.791-5.452,8.261-5.452Z" fill="#1c9ed6"/>
  <path d="M216.401,67.347v27.535h-8.26v-2.587c-1.818,2.091-4.516,3.359-8.206,3.359-7.213,0-13.162-6.333-13.162-14.538s5.948-14.538,13.162-14.538c3.69,0,6.388,1.266,8.206,3.359v-2.59h8.26ZM208.141,81.116c0-4.13-2.754-6.72-6.553-6.72s-6.553,2.59-6.553,6.72,2.753,6.718,6.553,6.718,6.553-2.587,6.553-6.718Z" fill="#1c9ed6"/>
  <path d="M282.957,86.403v8.48h-22.579v-38.547h8.811v30.067h13.768Z" fill="#1c9ed6"/>
  <path d="M285.709,59.97c0-2.699,2.258-4.958,4.957-4.958s4.956,2.259,4.956,4.958-2.258,4.956-4.956,4.956-4.957-2.259-4.957-4.956ZM286.535,67.347h8.26v27.535h-8.26v-27.535Z" fill="#1c9ed6"/>
  <path d="M310.654,67.347h5.121v7.93h-5.121v19.605h-8.26v-19.605h-3.69v-7.93h3.69c0-7.709,4.24-12.335,13.381-11.783v7.93c-3.084-.275-5.121.66-5.121,3.853Z" fill="#1c9ed6"/>
  <path d="M333.285,88.274c2.259,0,4.185-.881,5.287-2.093l6.608,3.799c-2.698,3.746-6.774,5.673-12.004,5.673-9.417,0-15.254-6.333-15.254-14.538s5.946-14.538,14.648-14.538c8.039,0,13.988,6.221,13.988,14.538,0,1.156-.111,2.257-.331,3.303h-19.55c1.047,2.865,3.58,3.855,6.608,3.855ZM338.351,78.251c-.881-3.193-3.359-4.35-5.837-4.35-3.139,0-5.232,1.541-6.003,4.35h11.84Z" fill="#1c9ed6"/>
  <g>
    <path d="M89.987,114.12c0-4.298,3.239-7.684,7.748-7.684,2.709,0,5.122,1.375,6.371,3.535l-2.117,1.229c-.783-1.462-2.392-2.393-4.254-2.393-3.197,0-5.313,2.265-5.313,5.313s2.117,5.313,5.313,5.313c1.862,0,3.492-.933,4.254-2.393l2.117,1.208c-1.228,2.159-3.641,3.555-6.371,3.555-4.509,0-7.748-3.386-7.748-7.684Z" fill="#0e7ca2"/>
    <path d="M115.502,115.03v6.499h-2.286v-6.265c0-1.609-.931-2.457-2.37-2.457-1.504,0-2.689.889-2.689,3.049v5.673h-2.285v-14.817h2.285v5.589c.699-1.1,1.842-1.63,3.281-1.63,2.37,0,4.064,1.609,4.064,4.36Z" fill="#0e7ca2"/>
    <path d="M117.223,107.896c0-.805.657-1.46,1.461-1.46s1.46.656,1.46,1.46c0,.784-.656,1.46-1.46,1.46s-1.461-.676-1.461-1.46ZM117.541,110.945h2.285v10.583h-2.285v-10.583Z" fill="#0e7ca2"/>
    <path d="M122.412,106.076h2.285v15.452h-2.285v-15.452Z" fill="#0e7ca2"/>
    <path d="M137.909,106.711v14.817h-2.286v-1.524c-.805,1.123-2.053,1.799-3.704,1.799-2.879,0-5.271-2.434-5.271-5.568,0-3.154,2.392-5.566,5.271-5.566,1.652,0,2.9.676,3.704,1.777v-5.735h2.286ZM135.622,116.235c0-1.967-1.44-3.386-3.344-3.386s-3.344,1.419-3.344,3.386,1.44,3.388,3.344,3.388,3.344-1.419,3.344-3.388Z" fill="#0e7ca2"/>
    <path d="M145.833,110.754v2.476c-1.503-.105-3.26.594-3.26,2.964v5.334h-2.285v-10.583h2.285v1.777c.635-1.437,1.927-1.967,3.26-1.967Z" fill="#0e7ca2"/>
    <path d="M152.821,119.708c1.271,0,2.223-.571,2.731-1.313l1.884,1.102c-.974,1.437-2.562,2.306-4.636,2.306-3.492,0-5.758-2.391-5.758-5.568,0-3.131,2.266-5.566,5.589-5.566,3.154,0,5.313,2.54,5.313,5.589,0,.316-.042.656-.085.951h-8.425c.36,1.65,1.694,2.498,3.387,2.498ZM155.637,115.348c-.317-1.822-1.652-2.604-3.027-2.604-1.715,0-2.879,1.016-3.197,2.604h6.223Z" fill="#0e7ca2"/>
    <path d="M169.17,115.03v6.499h-2.286v-6.265c0-1.609-.931-2.457-2.37-2.457-1.504,0-2.689.889-2.689,3.049v5.673h-2.285v-10.583h2.285v1.355c.699-1.1,1.842-1.63,3.281-1.63,2.37,0,4.064,1.609,4.064,4.36Z" fill="#0e7ca2"/>
    <path d="M172.245,112.215h-1.905l.847-5.504h2.54l-1.482,5.504Z" fill="#0e7ca2"/>
    <path d="M181.772,118.544c0,2.116-1.842,3.26-4.127,3.26-2.117,0-3.641-.953-4.319-2.476l1.969-1.144c.338.953,1.185,1.524,2.35,1.524,1.016,0,1.799-.339,1.799-1.185,0-1.884-5.695-.825-5.695-4.614,0-1.99,1.715-3.239,3.874-3.239,1.736,0,3.176.805,3.916,2.201l-1.927,1.08c-.381-.825-1.122-1.206-1.99-1.206-.825,0-1.545.36-1.545,1.121,0,1.926,5.694.763,5.694,4.678Z" fill="#0e7ca2"/>
    <path d="M203.414,121.528h-2.434v-10.563l-4.509,7.452h-.296l-4.509-7.473v10.583h-2.434v-14.817h2.625l4.466,7.409,4.487-7.409h2.604v14.817Z" fill="#0e7ca2"/>
    <path d="M205.814,107.896c0-.805.657-1.46,1.461-1.46s1.46.656,1.46,1.46c0,.784-.656,1.46-1.46,1.46s-1.461-.676-1.461-1.46ZM206.133,110.945h2.285v10.583h-2.285v-10.583Z" fill="#0e7ca2"/>
    <path d="M216.57,110.754v2.476c-1.503-.105-3.26.594-3.26,2.964v5.334h-2.285v-10.583h2.285v1.777c.635-1.437,1.927-1.967,3.26-1.967Z" fill="#0e7ca2"/>
    <path d="M229.169,110.945v10.583h-2.286v-1.524c-.805,1.123-2.053,1.799-3.704,1.799-2.879,0-5.271-2.434-5.271-5.568,0-3.154,2.392-5.566,5.271-5.566,1.652,0,2.9.676,3.704,1.777v-1.502h2.286ZM226.883,116.235c0-1.967-1.44-3.386-3.344-3.386s-3.344,1.419-3.344,3.386,1.44,3.388,3.344,3.388,3.344-1.419,3.344-3.388Z" fill="#0e7ca2"/>
    <path d="M230.849,116.235c0-3.154,2.392-5.566,5.589-5.566,2.074,0,3.874,1.08,4.721,2.73l-1.969,1.144c-.465-.995-1.503-1.63-2.773-1.63-1.864,0-3.281,1.417-3.281,3.322s1.418,3.324,3.281,3.324c1.27,0,2.307-.656,2.815-1.63l1.969,1.123c-.889,1.671-2.689,2.751-4.763,2.751-3.197,0-5.589-2.434-5.589-5.568Z" fill="#0e7ca2"/>
    <path d="M243.154,106.076h2.285v15.452h-2.285v-15.452Z" fill="#0e7ca2"/>
    <path d="M252.871,119.708c1.271,0,2.223-.571,2.731-1.313l1.884,1.102c-.974,1.437-2.562,2.306-4.636,2.306-3.492,0-5.758-2.391-5.758-5.568,0-3.131,2.266-5.566,5.589-5.566,3.154,0,5.313,2.54,5.313,5.589,0,.316-.042.656-.085.951h-8.425c.36,1.65,1.694,2.498,3.387,2.498ZM255.687,115.348c-.317-1.822-1.652-2.604-3.027-2.604-1.715,0-2.879,1.016-3.197,2.604h6.223Z" fill="#0e7ca2"/>
    <path d="M276.779,106.711v14.817h-1.906l-6.985-10.054v10.054h-2.434v-14.817h1.905l6.986,10.054v-10.054h2.434Z" fill="#0e7ca2"/>
    <path d="M284.153,119.708c1.27,0,2.223-.571,2.731-1.313l1.884,1.102c-.974,1.437-2.562,2.306-4.636,2.306-3.492,0-5.758-2.391-5.758-5.568,0-3.131,2.266-5.566,5.589-5.566,3.154,0,5.313,2.54,5.313,5.589,0,.316-.042.656-.085.951h-8.425c.36,1.65,1.694,2.498,3.387,2.498ZM286.969,115.348c-.317-1.822-1.652-2.604-3.027-2.604-1.715,0-2.879,1.016-3.197,2.604h6.223Z" fill="#0e7ca2"/>
    <path d="M294.532,113.145v5.08c0,1.355.889,1.334,2.625,1.249v2.054c-3.514.424-4.91-.55-4.91-3.303v-5.08h-1.948v-2.201h1.948v-2.285l2.285-.678v2.964h2.625v2.201h-2.625Z" fill="#0e7ca2"/>
    <path d="M314.349,110.945l-3.324,10.583h-2.243l-2.202-7.134-2.222,7.134h-2.244l-3.324-10.583h2.414l2.053,7.303,2.223-7.303h2.18l2.202,7.303,2.074-7.303h2.413Z" fill="#0e7ca2"/>
    <path d="M314.738,116.235c0-3.154,2.498-5.566,5.589-5.566,3.112,0,5.589,2.412,5.589,5.566,0,3.133-2.477,5.568-5.589,5.568-3.09,0-5.589-2.434-5.589-5.568ZM323.628,116.235c0-1.926-1.44-3.344-3.302-3.344s-3.302,1.419-3.302,3.344,1.44,3.344,3.302,3.344,3.302-1.417,3.302-3.344Z" fill="#0e7ca2"/>
    <path d="M332.927,110.754v2.476c-1.503-.105-3.26.594-3.26,2.964v5.334h-2.285v-10.583h2.285v1.777c.635-1.437,1.927-1.967,3.26-1.967Z" fill="#0e7ca2"/>
    <path d="M341.25,121.528l-4.339-4.889v4.889h-2.285v-14.817h2.285v8.912l4.107-4.678h2.794l-4.657,5.185,4.826,5.398h-2.731Z" fill="#0e7ca2"/>
  </g>
  <g>
    <path d="M52.314,109.088h-13.929c-.558,0-1.011.452-1.011,1.01v4.975c0,3.303,2.678,5.981,5.981,5.981h3.993c3.303,0,5.981-2.678,5.981-5.981v-4.97c0-.56-.454-1.015-1.015-1.015" fill="#0e7ca2"/>
    <path d="M65.253,53.564c-.027-9.926-7.357-17.719-16.864-19.172-.989-.151-2.002-.228-3.041-.228s-2.047.077-3.038.228c-9.498,1.453-16.828,9.233-16.862,19.15v.149c.005,4.145,1.227,8.557,3.274,12.895,2.035,4.326,4.865,8.534,7.785,12.202,3.164,3.979,6.43,7.316,8.846,9.611,1.119-1.066,2.422-2.353,3.813-3.832,4.29-4.532,9.39-10.867,12.611-17.565,2.165-4.468,3.472-9.036,3.474-13.295,0-.056,0-.104.002-.142M77.26,53.636v.17c-.038,6.631-1.98,12.845-4.665,18.421-2.712,5.599-6.212,10.603-9.655,14.841-5.245,6.441-10.395,11.117-12.643,13.059-.022.019-.044.038-.067.06-.041.031-.079.06-.116.094-.005.003-.012.01-.017.012-.58.478-.907.62-.952.654v-.003c-2.469,1.443-5.582,1.367-7.98-.241-.183-.118-.416-.282-.697-.522-.014-.015-.031-.029-.046-.041-1.508-1.304-4.333-3.849-7.619-7.331-4.805-5.105-10.621-12.188-14.692-20.581-2.675-5.553-4.61-11.738-4.665-18.358,0-.046-.003-.122-.003-.233.01-15.975,11.716-28.725,27.055-31.069,1.585-.243,3.21-.37,4.855-.37s3.269.127,4.852.37c15.344,2.345,27.046,15.094,27.056,31.069" fill="#ffcb05"/>
  </g>
  <g>
    <path d="M246.58,91.443l5.284-7.588c1.168-1.679.754-3.994-.926-5.162l-7.587-5.28c-1.678-1.17-3.994-.754-5.16.924l-2.618,3.762c-.076-.003-.149-.01-.226-.009l-9.245.026c-.985.003-1.916.392-2.615,1.096-.699.704-1.084,1.634-1.081,2.62l.028,9.247c.004,1.599,1.026,2.965,2.453,3.478.394.142.82.221,1.263.218l9.245-.026c2.042-.007,3.702-1.674,3.696-3.716v-.287s2.332,1.623,2.332,1.623c.273.188.558.337.857.443,1.54.557,3.325.038,4.301-1.368M243.267,81.625c.699.486.87,1.446.383,2.145-.486.699-1.448.872-2.145.383-.699-.486-.871-1.444-.385-2.143.486-.699,1.448-.872,2.147-.386M242.306,76.265c.697.484.871,1.444.383,2.141-.484.701-1.446.874-2.145.387-.699-.486-.87-1.446-.383-2.145.486-.699,1.444-.872,2.145-.383M235.391,93.498l-9.245.026c-1.353.005-2.461-1.095-2.462-2.448l-.028-9.247c-.002-.651.253-1.266.717-1.736.464-.466,1.08-.723,1.731-.725l9.249-.026c.291,0,.575.05.836.145.944.339,1.62,1.244,1.624,2.305l.027,9.243c.003,1.355-1.095,2.461-2.45,2.464M242.467,89.518c-.699-.486-.87-1.446-.383-2.145.486-.699,1.446-.87,2.145-.383.697.485.87,1.447.383,2.145-.488.697-1.446.87-2.145.383" fill="#ffcb05"/>
    <path d="M228.426,82.587c-.003-.852-.692-1.539-1.545-1.536s-1.54.694-1.536,1.544c.003.852.692,1.539,1.545,1.536.85,0,1.539-.692,1.536-1.544" fill="#ffcb05"/>
    <path d="M228.438,86.439c-.003-.852-.694-1.54-1.545-1.536-.852.003-1.54.694-1.536,1.544,0,.85.692,1.539,1.545,1.536.85,0,1.539-.692,1.536-1.544" fill="#ffcb05"/>
    <path d="M226.902,88.754c-.85.004-1.538.696-1.536,1.544.003.852.694,1.54,1.544,1.536.85,0,1.539-.692,1.536-1.544,0-.85-.692-1.539-1.544-1.536" fill="#ffcb05"/>
    <path d="M234.594,84.11c.85-.004,1.538-.696,1.536-1.544-.003-.852-.694-1.54-1.544-1.536-.85,0-1.539.692-1.536,1.544,0,.85.692,1.539,1.545,1.536" fill="#ffcb05"/>
    <path d="M236.141,86.417c-.003-.852-.692-1.539-1.545-1.536s-1.54.694-1.536,1.544c.003.852.692,1.539,1.545,1.536.85,0,1.539-.692,1.536-1.544" fill="#ffcb05"/>
    <path d="M234.607,88.733c-.85.004-1.538.696-1.536,1.544.003.852.694,1.54,1.544,1.536.85,0,1.539-.692,1.536-1.544,0-.85-.692-1.539-1.544-1.536" fill="#ffcb05"/>
  </g>
  <g>
    <path d="M236.828,60.463c6.163,1.066,13.278-.053,12.637-1.991-1.078.1-4.657.337-7.897-.519,0,0,4.568.35,7.503-.047,2.553-.344,5.405-1.705,4.558-2.959-2.005.18-6.567.482-9.316-.184,0,0,3.805-.006,8.569-.433,2.103-.113,8.162-2.012,4.918-3.011-7.579-2.359-18.304-1.837-17.692.247.487,1.663-.081,5.639-3.079,7.424.438-3.854-.072-6.456-1.519-7.734-.602-.532-1.217-.942-1.878-1.256-1.197-.571-2.33-.716-3.425-.859-1.1-.142-2.14-.275-3.294-.825-1.151-.547-1.91-1.269-2.715-2.034-.801-.761-1.629-1.549-2.828-2.118-.659-.315-1.365-.533-2.155-.664-1.906-.319-4.245.925-6.955,3.69-.503-3.449,2.217-6.393,3.811-7.063,2.006-.841-4.353-9.492-10.964-13.888-2.82-1.888-.473,4.012.766,5.714,2.673,3.97,5.069,6.927,5.069,6.927-2.251-1.715-4.894-5.448-6.018-7.117-1.509.134-.766,3.206.578,5.404,1.543,2.527,4.692,5.852,4.692,5.852-2.706-1.975-4.778-4.901-5.38-5.8-1.908.722,1.708,6.953,6.424,11.062-2.163,2.428-4.086,5.292-4.835,6.831-1.013,1.922-.89,3.344-.606,4.202.325.979,1.012,1.743,1.991,2.209,1.233.587,2.848.64,4.549.147,2.992-.666,5.497-1.069,8.134.184,2.637,1.257,3.902,3.455,5.272,6.196.693,1.63,1.752,2.852,2.985,3.439.978.464,2.005.518,2.969.152.843-.322,2.026-1.121,2.877-3.122.721-1.55,1.732-4.848,2.253-8.057M229.18,70.538c-.968-.461-1.863-1.462-2.478-2.925-1.31-2.625-2.722-5.254-5.778-6.708-3.054-1.455-5.987-.894-8.849-.255-1.522.446-2.864.383-3.833-.08-1.586-.754-2.167-2.579-.896-4.98,1.412-2.914,7.784-11.703,11.698-11.049.734.121,1.345.321,1.876.576,2.171,1.032,3.028,2.954,5.543,4.152,2.516,1.197,4.548.65,6.719,1.681.531.255,1.074.604,1.631,1.094,2.975,2.625.17,13.114-1.199,16.047-1.064,2.503-2.845,3.201-4.433,2.445" fill="#ffcb05"/>
    <path d="M229.272,59.043s-.002-.002-.005-.002c-.618-.29-1.357-.029-1.651.589s-.032,1.357.583,1.654l.006.003c.618.294,1.359.03,1.654-.589.295-.62.032-1.36-.588-1.656" fill="#ffcb05"/>
    <path d="M230.264,56.96c.618.294,1.36.032,1.656-.588s.032-1.36-.588-1.656c-.002-.002-.003,0-.005-.002-.618-.294-1.357-.029-1.651.589-.294.618-.032,1.357.584,1.652l.003.003Z" fill="#ffcb05"/>
    <path d="M228.139,55.85s-.003,0-.005-.002c-.618-.29-1.357-.029-1.651.589-.294.618-.034,1.359.583,1.654l.005.002c.62.295,1.36.032,1.656-.588.295-.62.032-1.36-.588-1.656" fill="#ffcb05"/>
    <path d="M232.465,57.909s-.002-.002-.005-.002c-.618-.29-1.357-.029-1.651.589s-.032,1.357.583,1.654c.003,0,.005.002.006.003.618.294,1.359.03,1.654-.589.295-.62.032-1.36-.588-1.656" fill="#ffcb05"/>
    <path d="M220.647,52.865c.032-.064.034-.138.01-.205-.022-.066-.073-.124-.137-.152l-1.604-.766.761-1.602c.032-.064.036-.139.013-.205-.024-.067-.075-.122-.138-.154l-.639-.305-.656-.312c-.064-.028-.139-.032-.205-.01-.067.024-.124.073-.154.138l-.763,1.604-1.606-.764c-.062-.03-.138-.034-.205-.01-.066.022-.122.075-.152.137l-.618,1.298c-.03.062-.034.138-.01.205.022.066.075.122.137.152l1.604.763-.763,1.604c-.03.065-.036.139-.01.205.024.067.073.124.137.152l.657.314.639.305c.065.03.138.034.205.01.067-.024.122-.075.154-.138l.763-1.604,1.602.764c.065.03.141.034.207.011.066-.026.124-.076.154-.138l.616-1.297Z" fill="#ffcb05"/>
    <path d="M222.493,41.016c1.513,1.286,3.679,2.629,6.1,3.782,2.418,1.15,4.826,1.985,6.778,2.35,2.447.454,3.96.112,4.497-1.013.537-1.128-.152-2.517-2.048-4.129-1.513-1.286-3.679-2.629-6.1-3.782-2.42-1.152-4.826-1.985-6.78-2.348-2.447-.454-3.958-.113-4.497,1.013-.536,1.127.154,2.516,2.05,4.128M231.267,39.177c4.838,2.302,8.262,5.214,7.649,6.504-.614,1.288-5.034.467-9.873-1.834-4.837-2.303-8.262-5.214-7.649-6.504.616-1.29,5.034-.467,9.873,1.834" fill="#ffcb05"/>
  </g>
</svg>