
<svg xmlns="http://www.w3.org/2000/svg" version="1.1" xmlns:xlink="http://www.w3.org/1999/xlink" preserveAspectRatio="none" x="0px" y="0px" width="260px" height="111px" viewBox="0 0 260 111">
<defs>
<g id="Layer0_0_FILL">
<path fill="#808285" stroke="none" d="
M 63.75 15.35
Q 63.45 13.9 62.55 13.75 63.25 13.75 63.55 12.4 63.35 10.55 61.25 10.65
L 58.05 10.65 58.05 17.4 61.35 17.4
Q 63.35 17.6 63.75 15.35
M 61.05 14.4
Q 61.95 14.3 62.15 15.3 62.15 16.15 60.85 16.15
L 59.65 16.15 59.65 14.4 61.05 14.4
M 62.05 12.55
Q 61.85 13.35 60.95 13.25
L 59.65 13.25 59.65 11.9 60.95 11.9
Q 61.85 11.8 62.05 12.55 Z"/>
</g>

<g id="Layer0_1_FILL">
<path fill="#808285" stroke="none" d="
M 69.75 10.65
L 64.65 10.65 64.65 17.4 69.85 17.4 69.85 16.15 66.25 16.15 66.25 14.4 69.45 14.4 69.45 13.25 66.25 13.25 66.25 11.9 69.75 11.9 69.75 10.65 Z"/>
</g>

<g id="Layer0_2_FILL">
<path fill="#808285" stroke="none" d="
M 76.3 10.65
L 74.7 10.65
Q 74.8 12 74.8 15.1
L 72.1 10.65 70.65 10.65 70.65 17.4 72.2 17.4
Q 72.1 14 72 13.05
L 74.8 17.4 76.3 17.4 76.3 10.65 Z"/>
</g>

<g id="Layer0_3_FILL">
<path fill="#808285" stroke="none" d="
M 82.2 14.4
L 82.2 13.25 79 13.25 79 11.9 82.5 11.9 82.5 10.65 77.4 10.65 77.4 17.4 82.6 17.4 82.6 16.15 79 16.15 79 14.4 82.2 14.4 Z"/>
</g>

<g id="Layer0_4_FILL">
<path fill="#808285" stroke="none" d="
M 88.4 10.65
L 83.3 10.65 83.3 17.4 84.9 17.4 84.9 14.6 88 14.6 88 13.35 84.9 13.35 84.9 11.9 88.4 11.9 88.4 10.65 Z"/>
</g>

<g id="Layer0_5_FILL">
<path fill="#808285" stroke="none" d="
M 89.1 17.4
L 90.7 17.4 90.7 10.65 89.1 10.65 89.1 17.4 Z"/>
</g>

<g id="Layer0_6_FILL">
<path fill="#808285" stroke="none" d="
M 93.4 17.4
L 94.85 17.4 94.85 11.9 96.95 11.9 96.95 10.65 91.3 10.65 91.3 11.9 93.4 11.9 93.4 17.4 Z"/>
</g>

<g id="Layer0_7_FILL">
<path fill="#808285" stroke="none" d="
M 97.55 17.4
L 99.15 17.4 99.15 10.65 97.55 10.65 97.55 17.4 Z"/>
</g>

<g id="Layer0_8_FILL">
<path fill="#808285" stroke="none" d="
M 105.85 10.65
L 104.25 10.65
Q 104.35 12 104.35 15.1
L 101.65 10.65 100.15 10.65 100.15 17.4 101.75 17.4
Q 101.65 14 101.55 13.05
L 104.35 17.4 105.85 17.4 105.85 10.65 Z"/>
</g>

<g id="Layer0_9_FILL">
<path fill="#808285" stroke="none" d="
M 106.75 14
Q 106.65 17.2 109.95 17.5 111.25 17.5 112.05 16.55
L 112.15 17.3 113.35 17.3 113.35 13.65 110.15 13.65 110.15 14.8 111.95 14.8
Q 111.55 16.15 110.25 16.25 108.25 15.95 108.35 13.9 108.35 12 110.25 11.7 111.45 11.7 111.75 12.85
L 113.25 12.75
Q 112.65 10.35 110.25 10.45 106.85 10.65 106.75 14 Z"/>
</g>

<g id="Layer0_10_FILL">
<path fill="#808285" stroke="none" d="
M 51.55 25.15
L 51.55 24.95
Q 49.85 4.65 29.7 0.3 27.8 0 25.7 0 23.75 0 21.85 0.3 1.55 4.65 0 24.95
L 0 25.15
Q 0.3 32.95 3.75 39.55 9.25 49.5 15.65 55.7 19.85 59.85 21.75 61.4
L 21.85 61.4
Q 22.15 61.7 22.45 61.9 25.5 63.7 28.8 62.05 28.9 62.05 29.6 61.5
L 29.7 61.4
Q 33 58.9 40 51.15 44.3 46.1 47.8 39.55 51.25 32.95 51.55 25.15
M 41.9 24.95
Q 41.8 24.95 41.9 25.05 41.8 30.05 39 35.5 34.6 43.6 28.8 49.2 27.1 50.95 25.7 52.2 22.65 49.4 18.65 44.65 14.95 40.3 12.35 35.1 9.75 29.95 9.65 25.05
L 9.65 24.95
Q 10.75 12.3 23.35 9.55 24.5 9.4 25.7 9.4 27 9.4 28.2 9.55 40.8 12.3 41.9 24.95 Z"/>
</g>

<g id="Layer0_11_FILL">
<path fill="#808285" stroke="none" d="
M 26.9 76.75
Q 31.5 76.3 31.9 71.95
L 31.9 67.4 19.55 67.4 19.55 71.95
Q 19.95 76.3 24.5 76.75
L 26.9 76.75 Z"/>
</g>

<g id="Layer0_12_FILL">
<path fill="#808285" stroke="none" d="
M 66.85 31.6
Q 65.75 31.15 64.15 31.15 57.85 31.7 57.75 37.7 58.05 42.15 60.85 43.4 61.55 44.1 64.25 44.3 66.25 44.45 68.45 42.95 69.05 42.35 69.45 41.55 69.55 41.1 69.55 41 69.35 39.65 68.05 39.65 67.25 39.75 67.15 40.1 66.95 40.4 66.75 40.7 66.15 41.75 64.25 41.95 61.15 41.95 60.85 37.8 60.35 34.5 64.25 33.45 66.25 33.75 66.45 34.4 66.65 34.6 66.85 34.8 67.05 35.2 67.95 35.3 69.05 35.3 69.25 34.05 68.85 32.3 66.85 31.6 Z"/>
</g>

<g id="Layer0_13_FILL">
<path fill="#808285" stroke="none" d="
M 77.6 35
Q 76.7 34.5 75.9 34.6 73.7 34.9 73.3 35.7
L 73.3 32.85
Q 73.5 32 72.5 31.3 72.2 31.25 71.9 31.25 71.4 31.25 71.05 31.5 70.55 32.1 70.65 32.75
L 70.65 42.55
Q 70.45 43.5 71.5 44.1 71.8 44.2 72 44.1 72.6 44.1 73 43.7 73.4 43 73.3 42.45
L 73.3 39.05
Q 73.2 38 74 37.15 74.3 36.95 74.9 36.85 76.7 37.2 76.4 38.85
L 76.4 42.55
Q 76.3 43.3 76.8 43.8 77.2 44.1 77.7 44.1 78.3 44.1 78.7 43.8 79.1 43.2 79 42.55
L 79 38
Q 79.4 36.55 77.6 35 Z"/>
</g>

<g id="Layer0_14_FILL">
<path fill="#808285" stroke="none" d="
M 82.7 34.8
Q 82.5 34.7 82.1 34.7 81.4 34.7 81.2 35 80.8 35.3 80.8 36.25
L 80.8 42.45
Q 80.6 43.4 81.6 44.1 81.8 44.2 82.2 44.1 82.7 44.2 83.2 43.6 83.5 43.1 83.5 42.45
L 83.5 36.25
Q 83.7 35.4 82.7 34.8
M 83.5 32.4
Q 83.3 31.25 82.2 31.15 80.9 31.25 80.8 32.4 80.9 33.65 82.2 33.75 83.4 33.65 83.5 32.4 Z"/>
</g>

<g id="Layer0_15_FILL">
<path fill="#808285" stroke="none" d="
M 86.6 44.2
Q 88.2 43.6 87.9 42.55
L 87.9 32.75
Q 88.1 31.9 87.1 31.3 86.7 31.25 86.5 31.25 86 31.25 85.6 31.5 85.1 32.1 85.2 32.75
L 85.2 42.55
Q 84.8 43.7 86.6 44.2 Z"/>
</g>

<g id="Layer0_16_FILL">
<path fill="#808285" stroke="none" d="
M 97.85 31.3
Q 97.55 31.25 97.15 31.25 96.35 31.25 96.05 31.9 95.85 32.3 95.85 32.75
L 95.85 35.5
Q 95.15 34.8 93.3 34.5 89.2 35.1 89.2 39.25 89.7 44.4 93.3 44.3 95.35 44.1 95.95 42.95 95.95 43.3 96.25 43.7 96.65 44.2 97.25 44.1 98.85 43.7 98.55 42.45
L 98.55 32.85
Q 98.65 31.9 97.85 31.3
M 94 42.05
Q 93.4 42.15 92.7 41.55 91.8 40.4 91.9 39.25 91.8 37.05 93.9 36.75 94.65 36.55 95.55 37.8 95.85 38.5 95.95 39.45 96.35 41.1 94 42.05 Z"/>
</g>

<g id="Layer0_17_FILL">
<path fill="#808285" stroke="none" d="
M 100.35 35
Q 99.85 35.7 99.95 36.35
L 99.95 42.55
Q 99.75 43.5 100.85 44.1 101.25 44.2 101.35 44.2 101.95 44.2 102.35 43.8 102.85 43.2 102.75 42.55
L 102.75 39.75
Q 102.45 37.8 104.15 37.05 104.55 37.05 104.95 37.05 105.45 37.05 105.95 36.65 106.25 36.35 106.25 35.75 106.25 34.7 104.85 34.6 103.65 34.6 102.95 35.7 102.65 36.05 102.55 36.45
L 102.55 36.25
Q 102.75 35.6 101.85 34.8 101.65 34.7 101.25 34.7 100.65 34.7 100.35 35 Z"/>
</g>

<g id="Layer0_18_FILL">
<path fill="#808285" stroke="none" d="
M 106.05 39.45
Q 105.75 43.5 110.95 44.3 112.55 44.3 113.85 43.4 114.65 42.95 114.65 42.25 114.55 41.2 113.45 41.1 113.05 41.1 112.65 41.4 112.45 41.55 112.35 41.75 112.05 42.05 110.95 42.15 110.55 42.35 109.45 41.55 108.95 40.9 108.85 40.1
L 114.15 40.1
Q 115.15 40.4 115.35 38.95 115.75 35.4 110.95 34.5 106.25 34.9 106.05 39.45
M 112.45 37.2
Q 112.75 37.7 112.75 38.2
L 108.85 38.2
Q 108.95 36.95 110.85 36.55 111.85 36.55 112.45 37.2 Z"/>
</g>

<g id="Layer0_19_FILL">
<path fill="#808285" stroke="none" d="
M 124.6 37.9
Q 124.9 36.55 123.3 35.1 122.7 34.6 121.4 34.5 119.1 34.9 118.8 35.85 118.8 35.2 118 34.7 117.65 34.6 117.45 34.6 116.85 34.7 116.65 34.9 116.05 35.5 116.15 36.15
L 116.15 42.55
Q 115.95 43.5 117.05 44.1 117.15 44.1 117.55 44.1 118 44.1 118.4 43.7 118.8 43.2 118.8 42.55
L 118.8 38.85
Q 118.6 37.9 119.5 37.05 119.9 36.75 120.5 36.75 121.3 36.75 121.7 37.5 121.9 38 121.9 38.6
L 121.9 42.55
Q 121.8 43.1 122.3 43.7 122.6 44.1 123.3 44.1 124.1 44 124.3 43.7 124.7 43.1 124.6 42.45
L 124.6 37.9 Z"/>
</g>

<g id="Layer0_20_FILL">
<path fill="#808285" stroke="none" d="
M 125.8 32.6
Q 125.9 33.45 126.3 33.75 126.9 34.05 127.4 34.05 127.5 34.7 126.4 35.7 125.9 35.95 125.9 36.25 126 36.75 126.4 36.75 128.3 36.65 128.9 33.25 128.9 31.4 127.2 31.25 125.9 31.3 125.8 32.6 Z"/>
</g>

<g id="Layer0_21_FILL">
<path fill="#808285" stroke="none" d="
M 137.9 36.55
Q 137.8 34.8 134.2 34.5 132.3 34.4 130.9 35.7 130.1 36.75 130.2 37.5 130.8 40.05 132.8 40.1 133.7 40.4 134.6 40.6 135.4 40.7 135.5 41.5 135.5 42.25 134.1 42.35 132.4 42.05 132.3 41.55 132 40.8 131.1 40.7 130 40.8 129.9 41.95 129.9 43.9 134.2 44.3 138.8 43.6 138.3 41.3 137.8 38.65 135.3 38.5 134.8 38.3 134.3 38.2 132.8 37.9 132.8 37.2 132.8 36.45 134.1 36.45 135.5 36.55 135.7 37.15 135.9 37.6 136.7 37.7 137.8 37.6 137.9 36.55 Z"/>
</g>

<g id="Layer0_22_FILL">
<path fill="#808285" stroke="none" d="
M 69.15 47.45
Q 67.05 47.55 67.05 49.1
L 66.05 52.8
Q 65.35 55.4 64.85 57.45 64.05 53.45 63.75 52.6
L 62.75 48.9
Q 62.65 47.45 60.55 47.45 59.75 47.35 58.95 47.75 58.05 48.55 58.25 49.5
L 58.25 58.7
Q 57.95 59.95 59.55 60.45 61.25 59.95 60.95 58.7
L 60.95 55.2
Q 60.85 52.6 60.75 50.45 61.45 53.35 62.15 56.05
L 63.05 59.05
Q 63.15 60.25 64.85 60.45 66.75 60.25 66.75 59.05
L 67.65 55.9
Q 68.35 53.45 69.05 50.45 68.85 53.95 68.85 54.9
L 68.85 58.7
Q 68.55 59.95 70.25 60.45 71.8 59.95 71.5 58.7
L 71.5 49.5
Q 71.8 47.35 69.15 47.45 Z"/>
</g>

<g id="Layer0_23_FILL">
<path fill="#808285" stroke="none" d="
M 75.4 51.05
Q 75.2 50.95 74.8 50.95 74.1 50.95 73.9 51.25 73.5 51.55 73.5 52.5
L 73.5 58.7
Q 73.3 59.65 74.3 60.35 74.5 60.45 74.9 60.35 75.4 60.45 75.9 59.85 76.2 59.35 76.2 58.7
L 76.2 52.5
Q 76.4 51.65 75.4 51.05
M 74.9 47.35
Q 73.6 47.45 73.5 48.75 73.6 49.9 74.9 50 76.1 49.9 76.2 48.75 76 47.45 74.9 47.35 Z"/>
</g>

<g id="Layer0_24_FILL">
<path fill="#808285" stroke="none" d="
M 83 50.85
Q 81.8 50.85 81.1 51.9 80.8 52.3 80.7 52.7
L 80.7 52.5
Q 80.9 51.8 80 51.05 79.8 50.95 79.4 50.95 78.8 50.95 78.5 51.25 78 51.9 78.1 52.6
L 78.1 58.8
Q 77.9 59.75 79 60.35 79.4 60.45 79.5 60.45 80.1 60.45 80.5 60.05 81 59.45 80.9 58.8
L 80.9 56
Q 80.6 54.05 82.3 53.25 82.7 53.25 83.1 53.25 83.6 53.25 84.1 52.9 84.4 52.6 84.4 52 84.4 50.95 83 50.85 Z"/>
</g>

<g id="Layer0_25_FILL">
<path fill="#808285" stroke="none" d="
M 93.1 58.4
L 93.1 54.55
Q 93.4 53.1 92.1 51.65 91.4 50.85 89 50.75 84.7 51.15 85 52.8 85.1 53.85 86.2 53.95 87 53.75 87.2 53.45 87.4 52.8 88.8 52.8 89.8 52.6 90.3 53.55 90.4 54.25 89 54.35 86.2 54.7 85.4 55.3 84.9 55.5 84.4 56.35 84.2 56.75 84.2 57.5 84.3 60.35 87.5 60.45 88.8 60.5 90 59.75 90.3 59.55 90.5 59.25 90.6 60.15 91.8 60.35 93.4 59.95 93.1 58.4
M 90.4 55.8
L 90.4 57.25
Q 90.3 57.6 89.3 58.2 88.6 58.5 88.2 58.4 87 58.4 86.9 57.45 87.2 56.25 88.7 56.15 90.2 55.9 90.4 55.8 Z"/>
</g>

<g id="Layer0_26_FILL">
<path fill="#808285" stroke="none" d="
M 101.45 54.25
Q 102.55 54.25 102.65 53.1 102.75 52.4 101.95 51.7 100.55 50.65 98.95 50.75 94.55 50.65 94.1 55.7 94 60.15 98.85 60.5 102.75 59.95 102.75 58 102.55 56.75 101.45 56.75 100.55 56.85 100.35 57.5 100.25 58.2 98.95 58.3 96.55 57.9 96.85 55.7 97.05 53.25 97.85 53.15 98.35 52.9 98.85 52.9 100.05 53 100.25 53.55 100.45 53.75 100.65 53.95 100.85 54.25 101.45 54.25 Z"/>
</g>

<g id="Layer0_27_FILL">
<path fill="#808285" stroke="none" d="
M 104.45 47.75
Q 103.95 48.35 104.05 49
L 104.05 58.8
Q 103.65 59.95 105.45 60.45 107.05 59.85 106.75 58.8
L 106.75 49
Q 106.95 48.15 105.95 47.55 105.55 47.45 105.35 47.45 104.85 47.45 104.45 47.75 Z"/>
</g>

<g id="Layer0_28_FILL">
<path fill="#808285" stroke="none" d="
M 112.85 60.5
Q 114.45 60.5 115.75 59.65 116.55 59.05 116.55 58.5 116.45 57.45 115.35 57.35 114.95 57.35 114.55 57.6 114.35 57.8 114.25 58 113.95 58.3 112.85 58.4 112.45 58.6 111.35 57.8 110.85 57.05 110.75 56.35
L 116.05 56.35
Q 117.05 56.65 117.25 55.1 117.65 51.65 112.85 50.75 108.15 51.15 107.95 55.7 107.65 59.75 112.85 60.5
M 114.35 53.45
Q 114.65 53.95 114.65 54.45
L 110.75 54.45
Q 110.85 53.15 112.75 52.8 113.75 52.8 114.35 53.45 Z"/>
</g>

<g id="Layer0_29_FILL">
<path fill="#808285" stroke="none" d="
M 122.3 48.15
Q 122 48.65 122.1 49.3
L 122.1 58.6
Q 122 59.35 122.5 60.05 122.6 60.25 123.5 60.35 125.2 59.85 124.8 58.5
L 124.8 53.25
Q 124.8 52.5 124.8 51.9
L 129.1 58.95
Q 129.6 60.35 130.9 60.35 133.1 59.95 132.7 58.6
L 132.7 49.1
Q 132.8 48.25 132 47.55 131.8 47.45 131.3 47.45 130.6 47.55 130.3 47.85 129.9 48.45 129.9 49.1
L 129.9 54.15
Q 129.9 54.55 130 54.9 130 55.3 130 55.7
L 125.6 48.55
Q 125.2 47.45 123.8 47.45 122.8 47.45 122.3 48.15 Z"/>
</g>

<g id="Layer0_30_FILL">
<path fill="#808285" stroke="none" d="
M 138.5 60.5
Q 140.1 60.5 141.35 59.65 142.15 59.05 142.15 58.5 142.05 57.45 141 57.35 140.6 57.35 140.2 57.6 140 57.8 139.9 58 139.6 58.3 138.5 58.4 138.1 58.6 137 57.8 136.5 57.05 136.4 56.35
L 141.65 56.35
Q 142.65 56.65 142.85 55.1 143.25 51.65 138.5 50.75 133.8 51.15 133.6 55.7 133.3 59.75 138.5 60.5
M 138.4 52.8
Q 139.4 52.8 140 53.45 140.3 53.95 140.3 54.45
L 136.4 54.45
Q 136.5 53.15 138.4 52.8 Z"/>
</g>

<g id="Layer0_31_FILL">
<path fill="#808285" stroke="none" d="
M 146.25 48.15
Q 146.05 48.05 145.75 48.05 144.85 48.25 144.75 48.45 144.35 49 144.45 49.7
L 144.45 50.95
Q 143.65 50.85 143.15 51.55 143.05 51.7 143.05 52 143.25 52.8 143.55 52.9 143.95 53 144.45 53
L 144.45 57.9
Q 143.85 59.95 146.95 60.45 148.55 60.6 148.95 59.25 149.05 58.5 148.05 58.3 147.05 58.5 147.15 57.45
L 147.15 53
Q 148.45 53.1 148.65 52.4 148.85 52.2 148.85 52 148.65 51.25 148.35 51.05 148.15 50.95 147.15 50.95
L 147.15 49.7
Q 147.25 48.75 146.25 48.15 Z"/>
</g>

<g id="Layer0_32_FILL">
<path fill="#808285" stroke="none" d="
M 162.25 52.8
Q 162.35 52.5 162.35 52.2 162.25 51.05 160.95 50.95 159.65 51.25 159.75 52.1
L 158.75 56
Q 158.65 56.55 158.55 57.35 158.45 56.45 158.25 55.8
L 157.35 52
Q 157.45 51.15 155.85 50.95 154.35 51.15 154.35 52
L 153.55 55.5
Q 153.25 56.35 153.15 57.45 152.95 56.05 152.75 55.4
L 151.95 52.2
Q 151.95 51.25 150.65 50.95 149.45 50.95 149.35 52.1 149.35 52.5 149.45 53
L 151.35 59.15
Q 151.45 60.35 152.95 60.45 154.55 60.25 154.65 59.05
L 155.45 56
Q 155.75 54.8 155.85 53.75 155.95 54.8 156.35 56
L 157.15 59.25
Q 157.15 60.25 158.75 60.45 160.25 60.45 160.45 59.15
L 162.25 52.8 Z"/>
</g>

<g id="Layer0_33_FILL">
<path fill="#808285" stroke="none" d="
M 171.1 52.2
Q 169.6 50.75 167.5 50.75 162.75 51.05 162.45 55.6 162.35 59.85 167.3 60.45 171.9 60.25 172.3 55.6 172.2 53.35 171.1 52.2
M 169.2 53.85
Q 169.6 54.6 169.5 55.5 169.6 56.45 169.1 57.35 168.9 58 167.4 58.3 165.2 58.2 165.2 55.6 165 54.7 166 53.25 166.8 52.8 167.4 52.9 168 52.6 169.2 53.85 Z"/>
</g>

<g id="Layer0_34_FILL">
<path fill="#808285" stroke="none" d="
M 179.4 52.9
Q 179.7 52.6 179.7 52 179.7 50.95 178.3 50.85 177.1 50.85 176.4 51.9 176.1 52.3 176 52.7
L 176 52.5
Q 176.2 51.8 175.3 51.05 175.1 50.95 174.7 50.95 174.1 50.95 173.8 51.25 173.3 51.9 173.4 52.6
L 173.4 58.8
Q 173.2 59.75 174.3 60.35 174.7 60.45 174.8 60.45 175.4 60.45 175.8 60.05 176.3 59.45 176.2 58.8
L 176.2 56
Q 175.9 54.05 177.6 53.25 178 53.25 178.4 53.25 178.9 53.25 179.4 52.9 Z"/>
</g>

<g id="Layer0_35_FILL">
<path fill="#808285" stroke="none" d="
M 182.8 49
Q 182.9 48.25 182.1 47.55 181.8 47.45 181.5 47.45 180.8 47.45 180.5 47.85 180 48.35 180.1 49
L 180.1 58.8
Q 179.9 59.75 181 60.25 181.3 60.45 181.5 60.35 182.4 60.45 182.7 59.45 182.8 59.15 182.8 58.8
L 182.8 57.35 183.7 56.45 185.5 59.35
Q 185.8 60.25 186.8 60.35 187.95 60.35 188.25 59.05 188.15 58.4 187.8 57.9
L 185.6 54.7 187.4 53.1
Q 187.9 52.8 187.95 52.1 187.9 51.05 186.8 50.95 186 50.95 185.6 51.55
L 182.8 54.55 182.8 49 Z"/>
</g>

<g id="Layer0_36_FILL">
<path fill="#808285" stroke="none" d="
M 68.45 64.7
Q 68.65 64 67.55 63.8 66.85 63.9 66.85 64.2 66.75 64.4 66.75 64.7
L 66.75 69.4 59.95 69.4 59.95 64.7
Q 60.05 64.2 59.55 63.9 59.35 63.8 59.15 63.8 58.05 64 58.25 64.7
L 58.25 75.8
Q 58.15 76.3 58.65 76.55 58.85 76.65 59.05 76.65 60.15 76.45 59.95 75.8
L 59.95 70.85 66.75 70.85 66.75 75.8
Q 66.55 76.45 67.55 76.65 68.25 76.55 68.35 76.3 68.45 76.1 68.45 75.8
L 68.45 64.7 Z"/>
</g>

<g id="Layer0_37_FILL">
<path fill="#808285" stroke="none" d="
M 70.85 68.45
Q 69.55 70.5 69.75 71.95 69.45 73.3 70.95 75.5 72.6 76.95 74.2 76.75 75.8 76.95 77.6 75.4 79.1 73.3 78.9 71.85 78.6 67.2 74.3 67.1 72.9 66.8 70.85 68.45
M 74.3 68.45
Q 77.4 68.95 77.1 71.95 77.2 73 76.4 74.45 75.6 75.4 74.3 75.4 72.7 75.3 72.1 74.55 71.4 73.5 71.4 71.95 71.4 70.6 72.1 69.5 73.3 68.25 74.3 68.45 Z"/>
</g>

<g id="Layer0_38_FILL">
<path fill="#808285" stroke="none" d="
M 84.1 71.15
L 83 70.85
Q 81.6 70.65 81.5 69.5 81.5 68.95 82 68.65 82.6 68.25 83.1 68.35 85.1 68.65 85.2 69.5 85.5 70.3 86 70.2 86.6 70.3 86.8 69.5 87.3 68.05 83.1 67.1 79.1 68.05 79.8 69.8 80.3 72.05 82.4 72.3
L 83.4 72.6
Q 85 72.8 85.2 74.05 85.1 75.4 83.3 75.4 82.1 75.5 81.3 74.55 81.2 74.45 80.9 73.55 80.9 73.3 80.3 73.2 79.6 73.1 79.4 73.95 79.3 74.65 80.4 75.9 82.1 76.85 83.2 76.75 84.6 76.75 85.7 76.1 86.7 75.6 86.9 73.85 86.3 71.25 84.1 71.15 Z"/>
</g>

<g id="Layer0_39_FILL">
<path fill="#808285" stroke="none" d="
M 89.1 67.2
Q 88 67.4 88.2 67.95
L 88.2 79.2
Q 88.1 79.65 88.6 79.95 88.8 80.05 89.1 80.05 90.1 79.75 89.9 79.2
L 89.9 75.5
Q 90.9 76.55 93 76.75 97.05 76 96.85 71.95 96.55 67.2 92.8 67.1 91 67.1 89.9 68.35 90 67.6 89.5 67.3 89.2 67.2 89.1 67.2
M 89.9 71.85
Q 89.9 68.65 92.6 68.45 95.65 69.5 95.05 71.95 95.15 73.3 94.5 74.45 94 75.3 92.5 75.4 89.9 75.1 89.9 71.85 Z"/>
</g>

<g id="Layer0_40_FILL">
<path fill="#808285" stroke="none" d="
M 100.05 64.85
Q 99.95 63.8 98.95 63.8 98.05 63.8 97.95 64.85 97.95 65.75 98.95 65.85 99.95 65.75 100.05 64.85
M 99.85 67.95
Q 100.05 67.4 98.95 67.2 98.05 67.4 98.15 67.95
L 98.15 75.9
Q 98.15 76.55 99.05 76.65 99.65 76.55 99.75 76.3 99.85 76.1 99.85 75.9
L 99.85 67.95 Z"/>
</g>

<g id="Layer0_41_FILL">
<path fill="#808285" stroke="none" d="
M 102.85 67.3
L 101.85 67.3
Q 101.35 67.1 101.15 67.95 101.35 68.75 101.85 68.65
L 102.85 68.65 102.85 73.85
Q 102.15 76.3 105.45 76.65 106.35 76.75 106.45 75.9 106.35 75.1 105.55 75.2 104.85 75.3 104.65 74.65 104.55 74.55 104.55 73.2
L 104.55 68.65 105.65 68.65
Q 106.15 68.75 106.35 67.95 106.25 67.1 105.65 67.3
L 104.55 67.3 104.55 65.15
Q 104.75 64.6 103.65 64.4 102.65 64.6 102.85 65.15
L 102.85 67.3 Z"/>
</g>

<g id="Layer0_42_FILL">
<path fill="#808285" stroke="none" d="
M 108.45 70.3
Q 109.25 70.1 109.25 69.7 109.15 68.65 111.25 68.45 112.45 68.05 113.15 69.9 113.25 70.6 112.65 70.65 112.45 70.65 111.55 70.85
L 109.95 71.25
Q 107.85 71.05 107.15 73.85 107.25 76.55 110.25 76.75 111.65 76.85 113.25 75.4 113.25 76.2 113.35 76.3 113.45 76.65 114.05 76.65 114.85 76.45 114.75 75.9
L 114.75 70.6
Q 114.95 69.2 114.15 68.05 112.95 67 111.25 67.1 109.15 67 107.95 68.55 107.65 68.95 107.55 69.5 107.45 70.1 108.45 70.3
M 110.05 72.5
Q 110.45 72.4 110.95 72.3
L 111.95 72.1
Q 112.85 71.95 113.15 71.75 113.25 73.5 112.65 74.45 112.25 75.1 110.65 75.4 109.05 75.4 108.95 73.85 109.25 72.5 110.05 72.5 Z"/>
</g>

<g id="Layer0_43_FILL">
<path fill="#808285" stroke="none" d="
M 117.55 76.65
Q 118.5 76.4 118.3 75.9
L 118.3 64.6
Q 118.4 64 117.55 63.8 116.55 64 116.65 64.6
L 116.65 75.9
Q 116.75 76.65 117.55 76.65 Z"/>
</g>

<g id="Layer0_44_FILL">
<path fill="#808285" stroke="none" d="
M 119.8 73.95
Q 119.7 74.65 120.8 75.9 122.5 76.85 123.6 76.75 125 76.75 126.1 76.1 127.1 75.6 127.3 73.85 126.7 71.25 124.5 71.15
L 123.4 70.85
Q 122 70.65 121.9 69.5 121.9 68.95 122.4 68.65 123 68.25 123.5 68.35 125.5 68.65 125.6 69.5 125.9 70.3 126.4 70.2 127 70.3 127.2 69.5 127.7 68.05 123.5 67.1 119.5 68.05 120.2 69.8 120.7 72.05 122.8 72.3
L 123.8 72.6
Q 125.4 72.8 125.6 74.05 125.5 75.4 123.7 75.4 122.5 75.5 121.7 74.55 121.6 74.45 121.3 73.55 121.3 73.3 120.7 73.2 120 73.1 119.8 73.95 Z"/>
</g>

<g id="Layer0_45_FILL">
<path fill="#808285" stroke="none" d="
M 129.4 67.85
Q 130.8 67.7 131 66.3 130.8 64.95 129.4 64.85 128 64.95 127.9 66.3 128 67.7 129.4 67.85
M 129.4 65.05
Q 130.6 65.15 130.8 66.3 130.7 67.6 129.4 67.7 128.2 67.6 128.1 66.3 128.2 65.15 129.4 65.05
M 128.7 65.75
L 128.7 67.1
Q 128.7 67.3 129 67.3 129.2 67.3 129.2 67.1
L 129.2 66.6 129.4 66.6
Q 129.6 66.5 129.7 66.9
L 129.7 67.1
Q 129.8 67.3 130 67.3 130.2 67.3 130.2 67.2 130.2 67.1 130.2 67
L 130.1 66.8
Q 130 66.5 129.8 66.4 130.2 66.3 130.2 65.95 130.3 65.45 129.5 65.45
L 129.1 65.45
Q 128.7 65.35 128.7 65.75
M 129.4 66.25
L 129.2 66.25 129.2 65.75 129.4 65.75
Q 129.8 65.75 129.8 66.05 129.8 66.25 129.4 66.25 Z"/>
</g>
</defs>

<g transform="matrix( 1, 0, 0, 1, 0,0) ">
<use xlink:href="#Layer0_0_FILL"/>
</g>

<g transform="matrix( 1, 0, 0, 1, 0,0) ">
<use xlink:href="#Layer0_1_FILL"/>
</g>

<g transform="matrix( 1, 0, 0, 1, 0,0) ">
<use xlink:href="#Layer0_2_FILL"/>
</g>

<g transform="matrix( 1, 0, 0, 1, 0,0) ">
<use xlink:href="#Layer0_3_FILL"/>
</g>

<g transform="matrix( 1, 0, 0, 1, 0,0) ">
<use xlink:href="#Layer0_4_FILL"/>
</g>

<g transform="matrix( 1, 0, 0, 1, 0,0) ">
<use xlink:href="#Layer0_5_FILL"/>
</g>

<g transform="matrix( 1, 0, 0, 1, 0,0) ">
<use xlink:href="#Layer0_6_FILL"/>
</g>

<g transform="matrix( 1, 0, 0, 1, 0,0) ">
<use xlink:href="#Layer0_7_FILL"/>
</g>

<g transform="matrix( 1, 0, 0, 1, 0,0) ">
<use xlink:href="#Layer0_8_FILL"/>
</g>

<g transform="matrix( 1, 0, 0, 1, 0,0) ">
<use xlink:href="#Layer0_9_FILL"/>
</g>

<g transform="matrix( 1, 0, 0, 1, 0,0) ">
<use xlink:href="#Layer0_10_FILL"/>
</g>

<g transform="matrix( 1, 0, 0, 1, 0,0) ">
<use xlink:href="#Layer0_11_FILL"/>
</g>

<g transform="matrix( 1, 0, 0, 1, 0,0) ">
<use xlink:href="#Layer0_12_FILL"/>
</g>

<g transform="matrix( 1, 0, 0, 1, 0,0) ">
<use xlink:href="#Layer0_13_FILL"/>
</g>

<g transform="matrix( 1, 0, 0, 1, 0,0) ">
<use xlink:href="#Layer0_14_FILL"/>
</g>

<g transform="matrix( 1, 0, 0, 1, 0,0) ">
<use xlink:href="#Layer0_15_FILL"/>
</g>

<g transform="matrix( 1, 0, 0, 1, 0,0) ">
<use xlink:href="#Layer0_16_FILL"/>
</g>

<g transform="matrix( 1, 0, 0, 1, 0,0) ">
<use xlink:href="#Layer0_17_FILL"/>
</g>

<g transform="matrix( 1, 0, 0, 1, 0,0) ">
<use xlink:href="#Layer0_18_FILL"/>
</g>

<g transform="matrix( 1, 0, 0, 1, 0,0) ">
<use xlink:href="#Layer0_19_FILL"/>
</g>

<g transform="matrix( 1, 0, 0, 1, 0,0) ">
<use xlink:href="#Layer0_20_FILL"/>
</g>

<g transform="matrix( 1, 0, 0, 1, 0,0) ">
<use xlink:href="#Layer0_21_FILL"/>
</g>

<g transform="matrix( 1, 0, 0, 1, 0,0) ">
<use xlink:href="#Layer0_22_FILL"/>
</g>

<g transform="matrix( 1, 0, 0, 1, 0,0) ">
<use xlink:href="#Layer0_23_FILL"/>
</g>

<g transform="matrix( 1, 0, 0, 1, 0,0) ">
<use xlink:href="#Layer0_24_FILL"/>
</g>

<g transform="matrix( 1, 0, 0, 1, 0,0) ">
<use xlink:href="#Layer0_25_FILL"/>
</g>

<g transform="matrix( 1, 0, 0, 1, 0,0) ">
<use xlink:href="#Layer0_26_FILL"/>
</g>

<g transform="matrix( 1, 0, 0, 1, 0,0) ">
<use xlink:href="#Layer0_27_FILL"/>
</g>

<g transform="matrix( 1, 0, 0, 1, 0,0) ">
<use xlink:href="#Layer0_28_FILL"/>
</g>

<g transform="matrix( 1, 0, 0, 1, 0,0) ">
<use xlink:href="#Layer0_29_FILL"/>
</g>

<g transform="matrix( 1, 0, 0, 1, 0,0) ">
<use xlink:href="#Layer0_30_FILL"/>
</g>

<g transform="matrix( 1, 0, 0, 1, 0,0) ">
<use xlink:href="#Layer0_31_FILL"/>
</g>

<g transform="matrix( 1, 0, 0, 1, 0,0) ">
<use xlink:href="#Layer0_32_FILL"/>
</g>

<g transform="matrix( 1, 0, 0, 1, 0,0) ">
<use xlink:href="#Layer0_33_FILL"/>
</g>

<g transform="matrix( 1, 0, 0, 1, 0,0) ">
<use xlink:href="#Layer0_34_FILL"/>
</g>

<g transform="matrix( 1, 0, 0, 1, 0,0) ">
<use xlink:href="#Layer0_35_FILL"/>
</g>

<g transform="matrix( 1, 0, 0, 1, 0,0) ">
<use xlink:href="#Layer0_36_FILL"/>
</g>

<g transform="matrix( 1, 0, 0, 1, 0,0) ">
<use xlink:href="#Layer0_37_FILL"/>
</g>

<g transform="matrix( 1, 0, 0, 1, 0,0) ">
<use xlink:href="#Layer0_38_FILL"/>
</g>

<g transform="matrix( 1, 0, 0, 1, 0,0) ">
<use xlink:href="#Layer0_39_FILL"/>
</g>

<g transform="matrix( 1, 0, 0, 1, 0,0) ">
<use xlink:href="#Layer0_40_FILL"/>
</g>

<g transform="matrix( 1, 0, 0, 1, 0,0) ">
<use xlink:href="#Layer0_41_FILL"/>
</g>

<g transform="matrix( 1, 0, 0, 1, 0,0) ">
<use xlink:href="#Layer0_42_FILL"/>
</g>

<g transform="matrix( 1, 0, 0, 1, 0,0) ">
<use xlink:href="#Layer0_43_FILL"/>
</g>

<g transform="matrix( 1, 0, 0, 1, 0,0) ">
<use xlink:href="#Layer0_44_FILL"/>
</g>

<g transform="matrix( 1, 0, 0, 1, 0,0) ">
<use xlink:href="#Layer0_45_FILL"/>
</g>
</svg>
