
<svg xmlns="http://www.w3.org/2000/svg" version="1.1" xmlns:xlink="http://www.w3.org/1999/xlink" preserveAspectRatio="none" x="0px" y="0px" width="260px" height="111px" viewBox="0 0 260 111">
<defs>
<g id="Layer0_0_FILL">
<path fill="#1C5A7D" stroke="none" d="
M 216.15 68
Q 215.15 67 214 67.85
L 203.75 77
Q 202.8 78.05 203.6 79.25
L 212.55 89.7
Q 213.6 90.75 214.75 89.9
L 224.95 80.7
Q 225.95 79.7 225.15 78.45
L 216.15 68
M 213.85 71.5
Q 214.9 70.8 215.8 71.65 216.55 72.75 215.7 73.65 214.65 74.45 213.7 73.55 213 72.5 213.85 71.5
M 218.75 75.15
Q 219.5 76.25 218.65 77.15 217.65 77.95 216.7 77.05 215.95 76 216.8 75 217.85 74.3 218.75 75.15
M 219.8 78.55
Q 220.85 77.85 221.75 78.7 222.5 79.75 221.65 80.7 220.6 81.45 219.65 80.6 218.95 79.55 219.8 78.55
M 213.3 84.1
Q 214.35 83.35 215.25 84.25 216 85.3 215.15 86.25 214.1 87 213.15 86.15 212.45 85.05 213.3 84.1
M 207.35 77.1
Q 208.4 76.35 209.3 77.25 210.05 78.3 209.2 79.25 208.15 80 207.2 79.15 206.5 78.05 207.35 77.1
M 210.35 80.6
Q 211.35 79.85 212.25 80.75 213.05 81.8 212.2 82.75 211.15 83.5 210.2 82.65 209.5 81.55 210.35 80.6
M 227.7 71.6
Q 229.1 71.25 229 69.75
L 226.65 56.05
Q 226.25 54.65 224.85 54.75
L 211.4 57.2
Q 210.05 57.6 210.2 59.05
L 211.85 68.8 213.8 67.1
Q 215.1 66.15 216.35 67.25
L 221.1 72.85 227.7 71.6
M 226.35 68.05
Q 226.45 69.4 225.2 69.7 224 69.8 223.6 68.55 223.5 67.3 224.75 66.9 226 66.8 226.35 68.05
M 212.8 61.05
Q 212.7 59.75 213.95 59.4 215.2 59.3 215.55 60.55 215.65 61.85 214.4 62.2 213.15 62.3 212.8 61.05
M 220.95 64.3
Q 221.05 65.6 219.8 65.95 218.55 66.05 218.2 64.75 218.1 63.5 219.35 63.1 220.6 63 220.95 64.3 Z"/>
</g>

<g id="Layer0_1_FILL">
<path fill="#4EC1E0" stroke="none" d="
M 39.85 17.95
Q 36.05 18.65 31.3 21.35 26.6 24.2 24 27.1 21.45 30.05 22.25 31.8 23.3 33.4 27.1 32.7 30.9 31.95 35.7 29.3 45.7 23 44.7 18.85 43.65 17.25 39.85 17.95
M 31.8 22.25
Q 36 19.8 39.25 18.95 42.45 18.1 43.2 19.25 43.75 22.25 34.85 27.75 30.55 30.15 27.35 31 24.1 31.8 23.35 30.75 22.85 27.75 31.8 22.25 Z"/>
</g>

<g id="Layer0_2_FILL">
<path fill="#4EC1E0" stroke="none" d="
M 22.4 45.45
Q 22.45 46.3 22.55 47.1 22.75 48.8 23.15 50.3 23.15 50.35 23.2 50.4 23.2 50.55 23.25 50.65 23.3 50.75 23.3 50.8 23.35 50.9 23.4 51.05 23.4 51.1 23.4 51.15 23.45 51.3 23.5 51.35 23.55 51.4 23.55 51.45 23.6 51.6 23.65 51.7 23.65 51.8 23.7 51.8 23.75 51.95 23.8 52.05 23.8 52.1 23.85 52.15 23.85 52.3 23.95 52.4 23.95 52.45 24 52.5 24 52.6 24.05 52.75
L 24.05 52.8
Q 24.15 52.95 24.2 53 24.2 53.05 24.25 53.1 24.3 53.2 24.35 53.35
L 24.4 53.4
Q 24.45 53.5 24.55 53.65
L 24.55 53.7
Q 24.65 53.8 24.7 53.95 24.8 54.1 24.9 54.25 25.85 55.9 27.05 56.85 27.65 54.25 25.8 52.35 23.95 50.45 22.4 45.45
M 56.3 37.05
Q 55.95 36.35 55.55 35.6 56.85 40.65 56.3 43.25 55.7 45.9 57.6 47.8 59.05 43.5 56.3 37.05
M 61.05 8.9
Q 62.45 4.7 62.3 4.2 61.4 7.2 60.4 8.95 61.25 6.35 60.3 2.85 60.25 3.05 59.25 6.2 59.45 1.1 59.05 0.45 59.2 3.85 58.7 5.95 58.95 3.1 57.6 0 57.75 0.65 56.55 6.95 56.05 5.35 55.95 5.25 55.6 10.15 54.25 11.9 53.75 13 53.65 13.45 53.55 12.25 53.75 11.75 52.95 13.65 53.15 14.55 53.4 15.45 54.95 17.45 56.15 19.25 55.8 20.7 54.7 23.55 53.3 24.65 53.05 25 53 25.35 52.85 24.3 53.45 22.75 53.3 22.8 52.4 24.7 51.5 26.7 51.65 30 49.05 27.95 46.35 28.65 46.1 28.75 45.8 28.85 45.7 28.9 45.7 29.05 48.6 28.3 51.55 30.55 51.6 30.65 51.7 30.7 51.75 30.8 51.75 30.9 47.95 27.6 43.45 30.25 43.15 30.45 42.95 30.6 43.4 35.85 42.6 39.3 42.15 41.25 41.3 42.3 43.4 39.05 42.65 30.85 42.4 31.2 36.8 32.85 31.2 34.5 30.8 34.35 34.45 41.7 37.95 43.3 36.65 42.9 35.25 41.45 32.8 39 30.45 34.35 30.2 34.35 29.85 34.35 24.5 34.55 23.1 39.65 23.1 39.55 23.05 39.5 23.1 39.25 23.15 39 24.45 35.5 27.35 34.5 27.2 34.45 27.1 34.45 26.8 34.5 26.6 34.6 23.8 35.4 22.75 38.85 21.15 35.85 19.3 34.65 17.45 33.45 17.3 33.5 18.6 34.45 19.05 35.45 18.8 35.2 18.45 35.05 16.7 34.85 14.25 33.05 13.2 32 13.25 29.85 13.55 27.3 13.25 26.4 12.95 25.5 11.25 24.3 11.65 24.65 12.3 25.75 12.05 25.45 11 24.75 8.9 24.05 6 20.1 6 20.25 6.45 21.85 2.15 17.2 1.9 16.6 2.4 19.9 4.05 22.2 2.6044921875 20.7044921875 0.95 17.75 0.9828125 18.54921875 3.75 22.7 1.25 20.6 1.1 20.4 2.2 23.95 4.2 25.65 2.4 24.7 0.15 22.7 0.3 23.2 3.7 26 1.1 24.75 0.95 24.65 2.35 27.7 4.4 28.75 2.55 28.1 0 26.6 0.3 27.15 4.3 29.3 1.55 28.9 1.35 28.8 3.15 31.35 5.25 31.7 3.35 31.65 0.7 31.05 1.1 31.4 5.15 32.25 2.5 32.75 2.3 32.7 4.05 34.4 5.9 34.35 4.35 34.65 2.25 34.8 2.7 35.05 6.65 34.65 3.9 36 3.7 36.05 5.5 37.05 7.2 36.65 5.7 37.3 3.65 37.85 4.1 38 7.95 36.85 5.65 38.6 5.45 38.65 7.7 39.25 9.45 38.2 8 39.3 5.85 40.4 6.2 40.4 9.45 38.8 7.7 40.55 7.6 40.6 9.7 40.7 11.2 39.65 10.2 40.8 8.5 42.1 9 42 11.65 39.75 10.15 41.8 10 41.9 12.3 41.65 13.6 40.35 12.8 41.5 10.95 43 11.45 42.95 13.9 40.6 12.85 42.7 12.65 42.75 14.95 42.3 15.85 41.05 15.3 42.05 14.3 43.35 14.65 43.2 16.35 40.85 15.75 43.1 15.6 43.2 17.85 42.65 18.4 41.2 18.15 42.25 17.6 43.65 17.8 43.45 18.7 41.1 18.75 43.4 18.6 43.5 20.85 42.8 20.8 41.1 21 42.3 20.95 44 21.1 43.75 21.15 41.35 21.8 43.5 21.75 43.65 22.1 43.5 22.45 42.9 22.4 43.85 22.4 44.8 22.75 45.95 23.1 46.85
L 23.1 46.9
Q 24.35 49.75 25.65 51.45 27.7 53.9 27.2 56.95 28.65 58.1 29.95 57.85 31.2 57.35 31.75 54.85 31.55 54.05 31.65 51.8 31.65 50.3 31.95 48.9 31.5 48.35 31.3 47.65 30.75 44.65 33.4 43.55 35.25 43.1 36.55 44.45 35.3 43.35 33.65 43.75 31 44.85 31.55 47.7 31.75 48.35 32.15 48.85 31.8 50.05 31.75 52.1 31.7 54.15 31.8 54.55 32.15 52.95 32.45 51.45 32.5 51.35 32.55 51.15
L 32.55 51.1 32.6 51.05
Q 32.6 51 32.6 50.95 32.65 50.95 32.65 50.9
L 32.65 50.85
Q 32.7 50.75 32.7 50.7 32.7 50.65 32.75 50.65 32.75 50.6 32.75 50.55
L 32.75 50.5 32.8 50.45 32.8 50.4
Q 32.85 50.35 32.85 50.3
L 32.9 50.25 32.9 50.2
Q 32.95 50.15 32.95 50.1
L 32.95 50.05
Q 33 50.05 33 50
L 33.05 49.95 33.05 49.85 33.1 49.8
Q 33.15 49.7 33.2 49.65 34.2 50.2 35.4 49.85 37.3 49.2 37.55 47.2 38.35 46.85 39.1 46.55
L 39.15 46.55
Q 39.35 46.5 39.45 46.45
L 39.5 46.4
Q 39.65 46.35 39.85 46.35 40.05 46.3 40.2 46.25
L 40.25 46.2
Q 40.4 46.15 40.55 46.1 40.7 46.05 40.9 46
L 40.95 46
Q 41.1 45.95 41.25 45.9 42.4 45.6 43.65 45.4 44.9 46.9 46.9 46.4 48.05 46.1 48.65 45.1 48.7 45.1 48.8 45.15
L 48.85 45.15
Q 48.9 45.2 48.95 45.2
L 49 45.25 49.05 45.25 49.1 45.3 49.15 45.3
Q 49.25 45.4 49.35 45.5 49.4 45.55 49.45 45.55 49.65 45.7 49.85 45.85
L 49.85 45.9
Q 49.9 45.9 49.95 45.95 50.1 46.1 50.25 46.25 51.2 47.25 52.35 48.4 52.25 48 51.15 46.35 50.05 44.65 49.1 43.8 49.2 43.15 49 42.5 48 39.8 45.15 40.35 43.75 40.85 43.15 42.2 43.7 40.55 45.3 40 48.1 39.5 49.2 42.35 49.4 43 49.35 43.75 50.25 44.75 51.1 46.05 52.3 47.9 52.6 48.65 54.3 50.45 55.65 50.2 56.9 49.7 57.5 47.95 55.5 45.65 56 42.45 56.35 39.7 55.25 35.1 54.75 34.35 54.3 33.65 54.75 33.8 55 33.75 54.9 33.7 54.3 31.45 55.65 33.5 55.85 33.6 54.9 32.2 54.45 31.1 55.35 32.5 57.55 31.9 57.4 31.9 56.25 29.95 58.25 31.4 58.5 31.45 57.35 30.6 56.55 29.8 57.75 30.75 60 30 59.8 30 58.15 28.4 60.7 29.5 61.15 29.45 59.6 28.9 58.6 28.3 60.1 28.85 62.2 28 62 28 60.05 26.85 63.3 27.55 63.8 27.3 61.45 27.05 60.2 26.5 61.95 26.9 64 25.85 63.85 25.9 61.5 24.95 65.05 25.35 65.5 25.15 63.3 25 61.85 24.6 63.65 24.65 65.4 23.4 65.25 23.45 62.9 22.9 66.45 22.5 66.75 22.25 64.3 22.6 62.55 22.45 64.6 22.3 66.15 20.6 65.95 20.7 63.1 20.45 66.8 19.35 67.25 18.95 65.25 19.65 63.65 19.85 65.25 19.3 66.25 17.4 66.1 17.55 63.1 17.9 66.6 16.05 66.85 15.65 65 16.65 63.55 17.2 65.1 16.25 65.65 13.85 65.6 14 63.05 15 66.0322265625 12.1171875 66.15 11.55 64.29765625 13.5517578125 62.7 14.65 64.3 13.15 64.45 10.05 64.35 10.25 62.2 12.05 64.45 8.2 64.45 7.5 63.1 10.1 61.85 11.65 63 9.65 62.6 6.3 62.6 6.5 61.05 8.9
M 51.4 33.3
Q 51.6 33.4 51.8 33.6 51.95 33.8 52.05 34.05 52.1 34.3 52.1 34.55 52.05 34.75 52 34.95 51.9 35.2 51.7 35.35 51.45 35.5 51.2 35.55 50.95 35.6 50.7 35.55 50.4 35.5 50.2 35.4 50 35.25 49.8 35.05 49.65 34.8 49.55 34.6 49.5 34.35 49.5 34.1 49.55 33.85 49.65 33.65 49.8 33.45 50 33.35 50.2 33.2 50.4 33.15 50.7 33.1 50.95 33.15 51.15 33.15 51.4 33.3
M 41.15 36.55
Q 41.15 36.65 41.15 36.8 41.15 37.05 40.9 37.1 40.2 37.2 39.5 37.35 39.3 37.35 39.2 37.1 39.15 37 39.15 36.85 39.1 36.6 39.35 36.5 40.1 36.35 40.8 36.3 41.1 36.3 41.15 36.55
M 44.85 34.4
Q 45.1 34.25 45.4 34.2 45.7 34.15 45.9 34.2 46.2 34.25 46.4 34.4 46.6 34.5 46.75 34.65 46.9 34.9 46.95 35.15 47.05 35.4 46.95 35.7 46.95 35.95 46.75 36.2 46.6 36.35 46.4 36.5 46.2 36.7 45.9 36.75 45.6 36.85 45.35 36.8 45.05 36.7 44.8 36.6 44.6 36.45 44.45 36.25 44.3 36.05 44.25 35.75 44.2 35.45 44.3 35.2 44.35 34.95 44.5 34.75 44.7 34.55 44.85 34.4
M 48.65 31.9
Q 48.8 32.05 48.9 32.3 48.95 32.55 48.9 32.75 48.9 33 48.75 33.15 48.6 33.3 48.4 33.45 48.25 33.6 47.95 33.65 47.7 33.7 47.45 33.65 47.2 33.65 47 33.5 46.75 33.35 46.6 33.15 46.5 33 46.45 32.8 46.4 32.55 46.45 32.3 46.5 32.1 46.6 31.9 46.7 31.75 46.95 31.6 47.15 31.5 47.4 31.45 47.6 31.4 47.85 31.4 48.15 31.45 48.35 31.6 48.5 31.7 48.65 31.9
M 48.6 36.15
Q 48.9 36.1 49.2 36.15 49.4 36.2 49.65 36.35 49.9 36.45 50.1 36.65 50.25 36.9 50.3 37.15 50.4 37.45 50.35 37.75 50.35 38 50.25 38.25 50.1 38.5 49.85 38.7 49.65 38.85 49.35 38.95 49.05 39 48.75 38.95 48.45 38.9 48.25 38.75 48 38.6 47.8 38.35 47.65 38.1 47.55 37.85 47.5 37.55 47.55 37.25 47.6 37 47.75 36.75 47.9 36.5 48.15 36.35 48.35 36.25 48.6 36.15
M 47.35 41.95
Q 46.6 41.5 45.65 41.75 44.7 42.1 44.25 42.85 44.4 41.7 45.5 41.3 46.6 41.05 47.35 41.95
M 48.1 42.55
Q 48.05 42.3 47.95 42.1 48.15 42.4 48.25 42.75 48.6 44.8 46.7 45.6 44.7 46 43.95 44 43.9 43.9 43.9 43.75 44.7 45.7 46.6 45.3 48.45 44.55 48.1 42.55
M 42.95 43.35
Q 43 43.55 43 43.7 41.35 43.9 40.05 44.3 38.75 44.65 37.3 45.4 37.2 45.25 37.1 45.1 38.6 44.4 39.95 44 41.25 43.6 42.95 43.35
M 29.6 36.65
Q 30 36.7 30.3 36.8 31.1 37.1 31.65 37.65 32.25 38.15 32.6 39 33 39.8 32.95 40.75 32.9 41.65 32.5 42.55 32.1 43.4 31.35 44.05 30.65 44.7 29.7 45.05 29.6 45.05 29.5 45.1 28.65 45.35 27.8 45.25 26.95 45.15 26.2 44.7 25.5 44.35 25 43.65 24.55 43 24.35 42.15 24.2 41.35 24.35 40.5 24.5 39.7 24.9 39.05 24.6 39.65 24.45 40.35 24.3 41.15 24.45 41.9 24.65 42.75 25.1 43.35 25.55 44.05 26.25 44.45 26.95 44.85 27.8 44.95 28.65 45.05 29.55 44.75 30.5 44.5 31.2 43.8 31.9 43.15 32.25 42.35 32.65 41.5 32.7 40.6 32.75 39.7 32.35 38.9 32.05 38.1 31.45 37.6 30.85 37.05 30.15 36.8 29.9 36.7 29.6 36.65
M 28.6 37.3
Q 29.25 37.3 29.8 37.5 30.35 37.75 30.85 38.15 31.25 38.55 31.55 39.25 31.8 39.85 31.8 40.6 31.75 41.3 31.4 41.95 31.15 42.6 30.55 43.1 30.05 43.6 29.35 43.85 28.55 44.1 27.9 44.05 27.2 43.95 26.7 43.65 26.1 43.3 25.75 42.85 25.35 42.3 25.2 41.65 25.05 41 25.15 40.4 25.25 39.75 25.55 39.2 25.85 38.65 26.3 38.25 26.75 37.85 27.4 37.6 28 37.3 28.6 37.3
M 24.95 38.95
L 24.9 38.95
Q 25.023828125 38.7201171875 25.2 38.5 25.05 38.7 24.95 38.95
M 37 37.75
Q 37.1 38 36.85 38.1 36.2 38.35 35.6 38.7 35.35 38.8 35.2 38.55 35.15 38.45 35.1 38.35 35 38.05 35.25 37.95 35.85 37.65 36.55 37.35 36.8 37.3 36.95 37.55 36.95 37.65 37 37.75
M 32.25 46.8
Q 32.3 47 32.35 47.2 33.05 49.1 35.05 48.7 36.9 48 36.55 46 36.5 45.8 36.4 45.6 36.6 45.9 36.65 46.2 37.05 48.25 35.1 49 33.1 49.45 32.35 47.45 32.25 47.15 32.25 46.8
M 32.7 46.3
Q 32.8 45.15 33.95 44.7 35.05 44.5 35.75 45.4 35 44.9 34.05 45.2 33.05 45.5 32.7 46.3
M 29.75 37.6
Q 29.2 37.35 28.6 37.4 28 37.4 27.4 37.65 26.8 37.9 26.35 38.3 25.9 38.7 25.65 39.25 25.35 39.75 25.25 40.4 25.1 41 25.25 41.6 25.45 42.25 25.8 42.75 26.15 43.25 26.7 43.55 27.25 43.9 27.9 43.95 28.55 44 29.3 43.75 30 43.5 30.5 43 31.05 42.55 31.35 41.9 31.65 41.3 31.7 40.6 31.7 39.9 31.45 39.25 31.2 38.65 30.75 38.2 30.3 37.8 29.75 37.6
M 28.55 37.75
Q 29.1 37.7 29.6 37.9 30.1 38.05 30.45 38.45 30.9 38.85 31.1 39.4 31.3 39.95 31.25 40.55 31.2 41.2 31 41.7 30.7 42.3 30.25 42.75 29.8 43.15 29.15 43.35 28.55 43.6 27.95 43.5 27.4 43.45 26.85 43.2 26.4 42.95 26.05 42.5 25.75 42.05 25.6 41.45 25.5 40.95 25.55 40.4 25.65 39.85 25.9 39.4 26.15 38.9 26.6 38.5 26.95 38.15 27.5 37.95 28.05 37.75 28.55 37.75
M 28.3 37.85
Q 28.3 37.8 28.25 37.85 28.2 37.8 28.15 37.85
L 26.9 38.3 26.8 38.4 26.8 38.45
Q 26.75 38.5 26.8 38.55
L 27.2 39.95 25.75 40.55
Q 25.7 40.55 25.7 40.6 25.65 40.6 25.65 40.65 25.6 40.7 25.6 40.75
L 25.6 40.8 25.9 42.1 25.9 42.15
Q 25.95 42.2 26 42.2 26 42.25 26.05 42.25 26.1 42.25 26.15 42.2
L 27.65 41.65 28.15 43.3
Q 28.15 43.35 28.2 43.35 28.2 43.4 28.25 43.4 28.3 43.45 28.35 43.45 28.4 43.45 28.45 43.45
L 29.8 42.95
Q 29.85 42.95 29.9 42.9
L 29.95 42.85
Q 29.95 42.8 29.95 42.75 30 42.75 29.95 42.65
L 29.4 41 31.05 40.4
Q 31.1 40.35 31.15 40.35 31.15 40.3 31.2 40.25
L 31.2 40.2
Q 31.2 40.15 31.2 40.1
L 30.7 38.85
Q 30.65 38.8 30.65 38.75 30.6 38.75 30.6 38.7 30.55 38.7 30.5 38.7 30.45 38.7 30.4 38.7
L 28.85 39.35 28.4 37.95 28.4 37.9
Q 28.35 37.85 28.3 37.85
M 28.5 40
Q 28.6 40.05 28.65 40.1 28.7 40.2 28.75 40.3 28.8 40.4 28.8 40.5 28.75 40.6 28.7 40.7 28.65 40.8 28.6 40.85 28.5 40.95 28.45 40.95 28.35 41 28.25 41 28.1 41 28.05 40.95 27.95 40.9 27.9 40.85 27.8 40.75 27.8 40.65 27.75 40.55 27.75 40.45 27.75 40.35 27.8 40.25 27.85 40.15 27.95 40.1 28.05 40 28.15 40 28.25 39.95 28.35 39.95 28.45 39.95 28.5 40
M 30.25 40.2
L 29.95 39.35 30.5 39.65 30.25 40.2
M 27.35 38.95
L 27.65 38.4 28.2 38.6 27.35 38.95
M 26.1 41.3
L 26.4 40.7 26.65 41.55 26.1 41.3
M 28.95 42.75
L 28.4 42.5 29.35 42.15 28.95 42.75
M 48.65 36.3
Q 48.4 36.35 48.25 36.4 48.05 36.55 47.95 36.75 47.8 36.95 47.8 37.2 47.75 37.4 47.8 37.65 47.85 37.9 48 38.05 48.15 38.25 48.35 38.4 48.5 38.5 48.75 38.55 49 38.6 49.25 38.55 49.5 38.5 49.65 38.35 49.85 38.2 49.95 38 50.1 37.8 50.1 37.6 50.15 37.35 50.05 37.1 50 36.85 49.85 36.7 49.7 36.5 49.5 36.4 49.35 36.3 49.1 36.25 48.9 36.25 48.65 36.3
M 48.65 32.25
Q 48.6 32.05 48.45 31.9 48.35 31.75 48.2 31.65 48 31.55 47.8 31.5 47.6 31.5 47.45 31.5 47.2 31.55 47.05 31.65 46.85 31.8 46.75 31.9 46.65 32.1 46.6 32.25 46.6 32.45 46.6 32.65 46.65 32.85 46.8 33 46.9 33.1 47.1 33.2 47.25 33.3 47.5 33.35 47.65 33.4 47.9 33.35 48.1 33.3 48.3 33.2 48.4 33.05 48.5 32.95 48.65 32.8 48.65 32.6 48.7 32.45 48.65 32.25
M 45.4 34.3
Q 45.2 34.35 45 34.5 44.8 34.6 44.7 34.75 44.55 34.9 44.5 35.15 44.45 35.35 44.5 35.6 44.55 35.8 44.65 36 44.8 36.2 44.95 36.3 45.1 36.35 45.35 36.4 45.6 36.45 45.8 36.4 46.05 36.35 46.25 36.25 46.45 36.1 46.6 35.95 46.65 35.75 46.7 35.5 46.75 35.3 46.7 35.1 46.65 34.85 46.55 34.7 46.45 34.55 46.25 34.45 46.05 34.35 45.85 34.3 45.65 34.25 45.4 34.3
M 51.25 33.35
Q 51.1 33.25 50.9 33.25 50.7 33.2 50.45 33.25 50.25 33.3 50.1 33.4 49.95 33.5 49.85 33.7 49.75 33.85 49.7 34.05 49.7 34.25 49.75 34.45 49.8 34.65 49.95 34.8 50.1 34.95 50.25 35.05 50.45 35.2 50.7 35.2 50.9 35.25 51.15 35.2 51.3 35.15 51.5 35.05 51.65 34.9 51.75 34.75 51.85 34.6 51.85 34.4 51.9 34.2 51.8 34 51.75 33.8 51.6 33.65 51.45 33.45 51.25 33.35 Z"/>
</g>

<g id="Layer0_3_FILL">
<path fill="#1C5A7D" stroke="none" d="
M 165.55 54.9
Q 165.55 51.9 162.6 51.9 161.3 51.9 160.5 52.75 159.7 53.6 159.7 54.9
L 159.7 71.75
Q 159.7 73.05 160.5 73.9 161.3 74.75 162.6 74.75 163.9 74.7 164.75 73.9 165.55 73.1 165.55 71.75
L 165.55 54.9
M 165.15 48.7
Q 166.2 47.65 166.2 46.15 166.2 44.6 165.15 43.5 164.1 42.4 162.6 42.4 161.1 42.4 160.05 43.5 158.95 44.6 158.95 46.15 158.95 47.65 160.05 48.7 161.1 49.8 162.6 49.8 164.1 49.8 165.15 48.7 Z"/>
</g>

<g id="Layer0_4_FILL">
<path fill="#4EC1E0" stroke="none" d="
M 112.7 81.95
Q 112.9 80.95 111.75 80.35 110.5 79.6 109 79.25 108.85 79.25 108.85 79.1 108.8 78.7 108.4 78.7
L 108.25 78.7
Q 107.85 78.7 107.5 79.2
L 106.85 79.4
Q 106.8 79.4 106.5 79.9
L 106.45 80.05
Q 106.45 80.2 107.25 80.5
L 107.1 81.45
Q 106.75 83.95 106.85 84.75
L 106.85 84.8
Q 106.4 85.15 106.35 85.2
L 106.35 85.25 106.4 85.3
Q 106.4 85.7 106.5 85.8 106.85 85.85 106.85 85.9 107 85.9 107 86.75 106.8 88.6 107.5 88.6 107.95 88.45 108.1 87.8
L 108.15 87.65
Q 108.2 86.95 108.15 85.55
L 109.05 85.2
Q 110.15 84.75 111.15 84.1 112.45 83.2 112.7 82.05
L 112.7 81.95
M 111.5 82.05
Q 111.45 82.2 111.4 82.25 110.95 83.1 110.05 83.6 109.25 84.05 108.05 84.45 107.9 83.95 108.4 80.35
L 108.45 80.35
Q 111.7 81.1 111.5 82
L 111.5 82.05 Z"/>
</g>

<g id="Layer0_5_FILL">
<path fill="#4EC1E0" stroke="none" d="
M 114.75 77.7
Q 114.5 77.7 114.15 77.95 113.9 78.7 113.8 78.7
L 113.95 78.8
Q 113.9 79.25 113.95 79.25 113.5 80.65 113.2 81.9
L 113.1 82.55
Q 112.7 84.45 112.65 87.4 112.8 87.55 112.9 87.7 113.35 87.55 113.5 87.55 113.65 87.5 113.75 87.1
L 113.8 86.85
Q 113.85 84.35 114.15 82.9
L 114.2 82.55 114.95 79.35
Q 115.1 78.6 115.1 78 115.15 77.7 114.8 77.7
L 114.75 77.7 Z"/>
</g>

<g id="Layer0_6_FILL">
<path fill="#4EC1E0" stroke="none" d="
M 116.1 83.9
Q 114.5 85.35 114.35 86.35
L 114.35 86.4 114.3 86.6
Q 114.4 87.35 115.1 87.4 115.8 87.4 116.5 86.75 117.1 86.3 117.9 85.25
L 118 85.4
Q 118.2 86.6 118.35 87.05 118.65 87.65 119.1 87.85 119.15 87.85 119.45 87.65 119.75 87.65 119.8 87.45
L 119.8 87.35
Q 119.85 87.1 119.65 86.65 119.25 86.05 119.15 85.1 119.1 83.45 119.15 83.15 119.15 82.6 118.85 82.6
L 118.75 82.6
Q 118.45 82.6 118.1 82.85 117 83.25 116.1 83.9
M 115.6 86.2
Q 115.75 85.45 116.35 84.85 117.35 84 117.65 83.95
L 117.7 83.95
Q 117.6 84.5 116.65 85.45 116.1 86.2 115.6 86.2 Z"/>
</g>

<g id="Layer0_7_FILL">
<path fill="#4EC1E0" stroke="none" d="
M 120.2 85.45
Q 120.1 85.85 120.1 86.3 120.2 87 120.5 87
L 120.6 87
Q 121.05 87 121.35 86.9 121.55 86.9 122.25 86.3 123.05 85.3 123.4 84.95 123.4 86.7 123.1 88.15 122.95 89.05 122.75 89.6 122.4 90.55 121.85 90.55
L 121.8 90.55
Q 121.7 90.55 121.55 90.5
L 120.8 89.95
Q 120.55 89.95 120.5 89.9 120 89.5 119.85 89.5 119.65 89.5 119.35 89.7 119.3 90 119.5 90.35 120.4 91.65 121.55 91.7 121.8 91.7 122.15 91.55 123.55 91.05 123.95 89.3
L 124.3 86.5 124.35 86.4
Q 124.55 85.05 125.05 81.75 124.9 81.55 124.65 81.55
L 124.3 81.55
Q 124.1 81.8 123.85 82 123.75 82.35 123.65 82.6 123.55 83 122.3 84.75 122.05 85.15 122 85.15 121.45 85.75 121.2 85.75
L 121.15 85.75 121.2 85.45
Q 121.3 84.9 121.5 84.55 122.1 83.15 122.15 82.75
L 122.15 82.7
Q 121.95 82.45 121.75 82.45
L 121.65 82.45
Q 121.4 82.45 121.1 82.9 120.4 84.35 120.2 85.45 Z"/>
</g>

<g id="Layer0_8_FILL">
<path fill="#4EC1E0" stroke="none" d="
M 132.6 81.6
Q 132.65 81.55 133.1 81.1 133.15 80.85 133.05 80.15 132.6 78.7 131.5 78.7
L 131.35 78.7
Q 130.6 78.7 129.75 79.4 128.3 80.8 127.9 83
L 127.9 83.15
Q 127.4 85.5 128.6 87.55 129.35 88.35 130.25 88.35
L 130.35 88.35
Q 130.6 88.35 130.8 88.25 132 87.8 132.85 86.6 134.4 84.15 134.6 83 134.65 82.65 134.65 82.4 134.7 82.3 134.4 82.25 133.6 82.25 132.65 82.4 130.95 82.65 130.8 83.3 130.8 83.45 130.95 83.55 131.25 83.65 131.2 83.85
L 131.2 83.9
Q 132.85 83.55 133.4 83.5 133.05 84.4 132.75 84.95 131.5 87.35 130.5 87.35 130.05 87.35 129.75 86.9 128.75 85.3 129.15 83
L 129.2 82.85
Q 129.5 81.3 130.4 80.4 130.75 80.05 131.3 79.9
L 131.4 79.95
Q 131.7 80.15 131.85 80.8 132.05 81.7 132.35 81.7 132.45 81.7 132.6 81.6 Z"/>
</g>

<g id="Layer0_9_FILL">
<path fill="#4EC1E0" stroke="none" d="
M 135.85 83.9
Q 134.3 85.35 134.1 86.35
L 134.1 86.4 134.05 86.6
Q 134.15 87.35 134.85 87.4 135.55 87.4 136.25 86.75 136.85 86.3 137.65 85.25
L 137.75 85.4
Q 138 86.6 138.1 87.05 138.4 87.65 138.9 87.85 138.95 87.85 139.2 87.65 139.5 87.65 139.55 87.45
L 139.55 87.35
Q 139.6 87.1 139.4 86.65 139 86.05 138.95 85.1 138.9 83.45 138.95 83.15 138.95 82.6 138.6 82.6
L 138.5 82.6
Q 138.2 82.6 137.9 82.85 136.75 83.25 135.85 83.9
M 135.35 86.2
Q 135.5 85.45 136.15 84.85 137.1 84 137.4 83.95
L 137.45 83.95
Q 137.35 84.5 136.35 85.45 135.8 86.2 135.35 86.2 Z"/>
</g>

<g id="Layer0_10_FILL">
<path fill="#4EC1E0" stroke="none" d="
M 140.25 84.85
L 140 86.35
Q 139.95 86.65 139.8 87
L 139.85 87.1 139.85 87.3
Q 140 87.45 140.25 87.5 140.75 87.5 141.25 86.35 141.7 85.3 142 85.05 142.1 85.05 141.95 86.15 141.8 87.5 142.5 87.5
L 142.6 87.5
Q 143 87.5 144.25 85.2
L 144.3 85.2
Q 144.4 85.6 144.5 86.55 144.6 87.5 145.45 87.5 145.5 87.5 145.55 87.4 145.8 87.2 145.8 87.15 145.6 86.3 145.45 85.3 145.3 84.1 145.1 83.6 145.1 83.45 144.5 83.35
L 144.4 83.35 144.3 83.55 144.1 83.5
Q 143.95 83.65 143.75 83.85 143.45 84.45 143.25 84.75
L 143.2 84.75 143.15 84.65
Q 143.05 83.5 142.2 83.5 142.15 83.5 141.9 83.65 141.3 84.3 141.15 84.3
L 140.95 84.25
Q 140.9 84.2 140.85 84.35 140.55 84.45 140.55 84.5
L 140.55 84.6
Q 140.5 84.85 140.25 84.85 Z"/>
</g>

<g id="Layer0_11_FILL">
<path fill="#4EC1E0" stroke="none" d="
M 152 84.75
L 151.95 84.75
Q 151.9 84.9 151.75 84.95 151.7 84.9 151.7 84.85
L 151.75 84.8 151.75 84.6 151.7 84.6
Q 151.45 84.6 150.75 85.2 149.6 86.45 148.85 86.45 148.25 86.45 148 85.9
L 148 85.85
Q 149.45 85.3 149.65 84.45 149.7 84.25 149.65 83.85 149.3 82.7 148.4 82.7 147.95 82.7 147.25 83 146.65 83.2 146.45 84.1
L 146.45 84.25 146.25 85.6 146.25 85.65
Q 147.15 87.5 148.45 87.5
L 148.65 87.5
Q 148.85 87.5 149.15 87.45 150.2 87.1 150.8 86.3 150.85 86.15 151.1 86.1 151.2 85.9 151.3 85.75 151.95 85.05 152 84.75
M 148.5 84.5
Q 148.45 84.65 148.35 84.8 147.9 85.1 147.65 85.1 147.4 84.9 147.5 84.4 147.6 84.05 147.7 83.9 147.75 83.7 148 83.7
L 148.15 83.7
Q 148.6 83.9 148.5 84.5 Z"/>
</g>

<g id="Layer0_12_FILL">
<path fill="#4EC1E0" stroke="none" d="
M 153.65 83.05
Q 153.2 83.05 152.55 83.3 151.4 83.8 151.2 84.7
L 151.2 84.75
Q 151.1 85.3 152.35 85.75 153.6 86.05 154.05 86.3
L 154.05 86.35
Q 153.65 86.6 153.15 86.6 152.5 86.6 151.7 86.2 151.3 86.45 151.25 86.75
L 151.2 86.85
Q 151.2 87.1 151.3 87.3 151.25 87.55 152.85 87.7 153.3 87.65 153.75 87.6 155.4 87.3 155.6 86.35 155.7 85.85 155.2 85.5 154.65 85.2 153.4 84.9 152.7 84.7 152.55 84.4 152.55 84.3 153.9 84.05 154.3 83.95 154.5 83.75 154.5 83.7 154.45 83.35 154.45 83.05 153.8 83.05
L 153.65 83.05 Z"/>
</g>

<g id="Layer0_13_FILL">
<path fill="#4EC1E0" stroke="none" d="
M 156.95 86.3
L 156.85 86.3 156.45 86.35
Q 156 86.55 155.9 86.95
L 155.9 87.15
Q 155.95 87.55 156.3 87.6
L 156.45 87.55
Q 157.2 87.25 157.35 86.75
L 157.35 86.7
Q 157.4 86.35 156.95 86.3 Z"/>
</g>

<g id="Layer0_14_FILL">
<path fill="#4EC1E0" stroke="none" d="
M 167.55 77.6
L 167.4 77.6
Q 166.9 77.75 166.8 78.35
L 166.75 78.5
Q 166.6 79.75 165.95 83.85 165.1 84.05 163.9 84.05
L 163.75 84.05 163.8 83.55
Q 164.25 80.1 164.45 79.15
L 164.6 78.35
Q 164.65 78.1 164.55 78 164.6 77.85 164.1 77.85
L 163.85 77.85
Q 163.5 77.85 163.2 79.1 162.8 81.7 162.5 84.05 162.5 84.1 162.25 84.15
L 161.45 84.15
Q 161.25 84.15 161.1 84.7 161.1 84.8 161.15 84.9 161.3 85.2 162.1 85.2
L 162.3 85.15 162.4 85.15
Q 162.45 85.2 162.3 86.45 161.85 88.15 161.95 88.6
L 162.7 88.6
Q 163.05 88.6 163.2 87.7 163.35 86.85 163.65 85.1
L 165.45 85 165.8 85.05
Q 165.85 85.05 165.8 85.8 165.5 87.6 165.55 87.75 165.5 87.95 166 87.95 166.45 87.95 166.7 87.7
L 166.75 87.5
Q 167 85.25 167 85.55 167.1 84.95 167.05 84.95
L 167.1 84.9
Q 167.1 85 168.25 85.05
L 168.35 85.05
Q 168.9 85.05 168.95 84.65 168.95 84.1 167.25 83.85 167.15 83.85 167.2 83.4 167.8 80.1 167.9 79.6
L 168.05 78.3 168.05 78
Q 168.05 77.6 167.55 77.6 Z"/>
</g>

<g id="Layer0_15_FILL">
<path fill="#4EC1E0" stroke="none" d="
M 174 84.6
L 173.95 84.6
Q 173.65 84.6 173 85.2 171.8 86.45 171.05 86.45 170.5 86.45 170.2 85.9
L 170.2 85.85
Q 171.65 85.3 171.85 84.45 171.9 84.25 171.85 83.85 171.5 82.7 170.6 82.7 170.15 82.7 169.5 83 168.85 83.2 168.7 84.1
L 168.7 84.25 168.5 85.6 168.5 85.65
Q 169.4 87.5 170.65 87.5
L 170.85 87.5
Q 171.05 87.5 171.4 87.45 172.4 87.1 173.05 86.3 173.1 86.15 173.3 86.1 173.4 85.9 173.5 85.75 174.2 85.05 174.2 84.75 174.15 84.9 174 84.95 173.95 84.9 173.95 84.85
L 174 84.8 174 84.6
M 169.7 84.4
Q 169.8 84.05 169.9 83.9 169.95 83.7 170.25 83.7
L 170.4 83.7
Q 170.8 83.9 170.7 84.5 170.65 84.65 170.6 84.8 170.1 85.1 169.85 85.1 169.65 84.9 169.7 84.4 Z"/>
</g>

<g id="Layer0_16_FILL">
<path fill="#4EC1E0" stroke="none" d="
M 177.15 82.6
Q 176.9 82.6 176.55 82.85 175.4 83.25 174.5 83.9 172.95 85.35 172.75 86.35
L 172.75 86.4 172.7 86.6
Q 172.8 87.35 173.5 87.4 174.2 87.4 174.95 86.75 175.45 86.3 176.3 85.25
L 176.4 85.4
Q 176.65 86.6 176.8 87.05 177.05 87.65 177.55 87.85 177.6 87.85 177.85 87.65 178.15 87.65 178.2 87.45
L 178.2 87.35
Q 178.25 87.1 178 86.65 177.7 86.05 177.6 85.1 177.55 83.45 177.6 83.15 177.6 82.6 177.25 82.6
L 177.15 82.6
M 176.1 83.95
Q 176.05 84.5 175.05 85.45 174.45 86.2 174.05 86.2 174.2 85.45 174.8 84.85 175.75 84 176.05 83.95
L 176.1 83.95 Z"/>
</g>

<g id="Layer0_17_FILL">
<path fill="#4EC1E0" stroke="none" d="
M 180.8 77.7
Q 180.55 77.7 180.2 77.95 179.95 78.7 179.85 78.7
L 180 78.8
Q 179.95 79.25 180 79.25 179.55 80.65 179.25 81.9
L 179.15 82.55
Q 178.75 84.45 178.7 87.4 178.85 87.55 178.95 87.7 179.4 87.55 179.55 87.55 179.7 87.5 179.8 87.1
L 179.85 86.85
Q 179.9 84.35 180.2 82.9
L 181 79.35
Q 181.15 78.6 181.15 78 181.2 77.7 180.85 77.7
L 180.8 77.7 Z"/>
</g>

<g id="Layer0_18_FILL">
<path fill="#4EC1E0" stroke="none" d="
M 189.7 79.75
L 188.9 80.3
Q 187.25 81.35 185.8 81.85
L 185.85 81.45
Q 186.35 80.1 186.4 79.9
L 186.45 79.6
Q 186.5 79.35 186 79.35
L 185.9 79.35
Q 185.75 79.35 185.55 79.45 185 80.65 184.8 81.55
L 184.7 82.3 184.35 82.5
Q 183.45 82.8 183.45 83
L 183.4 83.1
Q 183.35 83.35 183.55 83.55 184.15 84.05 184.2 84.2 184.35 84.3 184.2 85.35
L 184.05 87.7
Q 184.05 87.85 184.4 87.9
L 184.55 87.9
Q 184.85 87.9 185.1 87.65
L 185.1 87.25
Q 185.2 85.65 185.3 85.35
L 185.3 85.25 185.35 85.15
Q 185.45 85.15 186.2 85.75 188.05 87.35 189.3 87.3
L 189.45 87.3
Q 189.9 87.35 190.5 87.05 190.5 86.75 190.4 86.65 190.45 86.5 189.6 86.5 189.1 86.5 188.3 85.9 187.45 85.4 186 84.05 185.35 83.75 185.45 83.3
L 185.55 83.05
Q 186.1 82.8 186.2 82.8 188 81.9 188.85 81.4 190.4 80.7 190.5 80.3
L 190.5 80.2
Q 190.55 79.85 189.7 79.75 Z"/>
</g>

<g id="Layer0_19_FILL">
<path fill="#4EC1E0" stroke="none" d="
M 193.1 80.7
L 193 80.7
Q 192.4 80.7 192.25 81.15
L 192.2 81.25 192.2 81.3
Q 192.2 81.55 192.65 81.6
L 192.8 81.6
Q 193.55 81.45 193.6 81.15
L 193.6 80.95
Q 193.55 80.7 193.1 80.7
M 193 82.65
Q 193.05 82.45 192.65 82.5 192.2 82.45 192.05 83.2 191.9 84.05 191.8 84.5
L 191.25 86.6
Q 191.1 87.4 191.35 87.65
L 191.4 87.55
Q 191.45 87.8 191.6 87.75
L 191.8 87.65
Q 192.1 87.6 192.25 87.45
L 192.75 85.05
Q 193 83.8 193 82.65 Z"/>
</g>

<g id="Layer0_20_FILL">
<path fill="#4EC1E0" stroke="none" d="
M 197.9 80
Q 197.8 80 197.75 80.05
L 197.05 80.5 196.95 81
Q 196.85 81.6 196.65 83.7 196.6 83.95 196.4 84 195.75 84.1 194.55 84.95 193.25 86.1 193.2 86.55
L 193.2 86.65
Q 193.15 86.8 193.15 87.25 193.15 87.3 193.5 87.65 194.6 87.65 195.6 87.15 196.4 86.7 196.8 86.1 196.95 86.4 197.05 86.7 197.15 87.55 197.75 87.5
L 198.05 87.5
Q 198.45 87.1 198.45 87
L 198.45 86.85
Q 198.5 86.65 198.2 86.3 197.65 84.6 197.9 83.3
L 197.9 83.15 198.25 81.6
Q 198.45 80.35 198.3 80.25 198.1 80.15 198.1 80
L 197.9 80
M 194.35 86.5
Q 194.4 86.4 194.75 86 195.25 85.35 196.15 85.05 196.1 85.15 196 85.35 195.3 86.55 194.5 86.55
L 194.35 86.5 Z"/>
</g>

<g id="Layer0_21_FILL">
<path fill="#4EC1E0" stroke="none" d="
M 202.2 83.35
Q 202.2 83.05 201.5 83.05
L 201.4 83.05
Q 200.9 83.05 200.3 83.3 199.1 83.8 198.9 84.7
L 198.9 84.75
Q 198.8 85.3 200.05 85.75 201.35 86.05 201.75 86.3
L 201.75 86.35
Q 201.4 86.6 200.85 86.6 200.25 86.6 199.45 86.2 199 86.45 198.95 86.75
L 198.95 86.85
Q 198.9 87.1 199 87.3 198.95 87.55 200.55 87.7 201 87.65 201.45 87.6 203.15 87.3 203.3 86.35 203.4 85.85 202.95 85.5 202.35 85.2 201.15 84.9 200.45 84.7 200.3 84.4 200.35 84.3 201.6 84.05 202.05 83.95 202.25 83.75 202.25 83.7 202.2 83.35 Z"/>
</g>

<g id="Layer0_22_FILL">
<path fill="#4EC1E0" stroke="none" d="
M 204.65 86.3
L 204.55 86.3 204.15 86.35
Q 203.7 86.55 203.6 86.95
L 203.6 87.15
Q 203.65 87.55 204.05 87.6
L 204.15 87.55
Q 205 87.25 205 86.75
L 205.05 86.7
Q 205.1 86.35 204.65 86.3 Z"/>
</g>

<g id="Layer0_23_FILL">
<path fill="#1C5A7D" stroke="none" d="
M 111.65 54.9
Q 111.65 53.6 110.8 52.8 109.95 51.9 108.7 51.9 104.7 51.9 102 54.65 99.25 57.5 99.25 61.55
L 99.25 71.7
Q 99.25 73.05 100.05 73.9 100.9 74.7 102.2 74.7 103.5 74.7 104.35 73.9 105.15 73.05 105.15 71.7
L 105.15 61.5
Q 105.2 60 106.15 59.05 107.15 58.05 108.6 57.95 111.65 57.7 111.65 54.9 Z"/>
</g>

<g id="Layer0_24_FILL">
<path fill="#1C5A7D" stroke="none" d="
M 85.15 47.5
Q 84.3 46.6 83 46.6 81.7 46.6 80.9 47.5 80.1 48.3 80.1 49.65
L 80.1 65.05
Q 80.1 69.2 82.8 71.95 85.5 74.7 89.5 74.7
L 92.3 74.7
Q 95.2 74.7 95.2 71.65 95.2 70.35 94.4 69.55 93.6 68.65 92.3 68.7
L 89.5 68.7 89.5 68.65
Q 88.05 68.7 87 67.65 85.95 66.55 85.95 65.05
L 85.95 58.05 92.3 58.05
Q 95.2 58.05 95.2 55 95.2 53.7 94.4 52.9 93.6 52 92.3 52.05
L 85.95 52.05 85.95 49.65
Q 86 48.3 85.15 47.5 Z"/>
</g>

<g id="Layer0_25_FILL">
<path fill="#1C5A7D" stroke="none" d="
M 116.6 55.1
Q 113.4 58.4 113.4 63.25 113.4 68.05 116.6 71.4 119.8 74.7 124.5 74.7
L 132.7 74.7
Q 133.4 74.7 134.9 73.9 135.7 73.05 135.7 71.7
L 135.7 63.25
Q 135.7 58.4 132.5 55.1 129.25 51.8 124.5 51.8 119.85 51.8 116.6 55.1
M 120.85 67.1
Q 119.25 65.5 119.25 63.25 119.3 61 120.85 59.45 122.35 57.85 124.5 57.85 126.7 57.9 128.25 59.45 129.85 61.05 129.85 63.25
L 129.85 68.7 124.5 68.7
Q 122.35 68.65 120.85 67.1 Z"/>
</g>

<g id="Layer0_26_FILL">
<path fill="#1C5A7D" stroke="none" d="
M 149.95 43.7
Q 149.15 44.55 149.15 45.85
L 149.15 71.8
Q 149.15 73.1 149.95 73.9 150.75 74.75 152.1 74.7 153.4 74.75 154.25 73.9 155.05 73.05 155.05 71.75
L 155.05 45.9
Q 155.1 42.9 152.1 42.9 150.75 42.9 149.95 43.7 Z"/>
</g>

<g id="Layer0_27_FILL">
<path fill="#1C5A7D" stroke="none" d="
M 179.65 42.7
Q 175.6 42.7 172.9 45.45 170.2 48.25 170.2 52.4
L 170.2 71.65
Q 170.2 73 171 73.9 171.8 74.7 173.15 74.7 174.4 74.7 175.25 73.9 176.05 73 176.05 71.65
L 176.05 64.85 180.55 64.85
Q 181.85 64.85 182.65 64.05 183.45 63.15 183.45 61.85 183.5 58.8 180.55 58.8
L 176.05 58.8 176.05 52.4
Q 176.1 50.9 177.1 49.8 178.15 48.75 179.65 48.75
L 181.2 48.75
Q 184.1 48.55 184.1 45.75 184.1 42.95 181.2 42.7
L 179.65 42.7 Z"/>
</g>

<g id="Layer0_28_FILL">
<path fill="#1C5A7D" stroke="none" d="
M 186.35 63.25
Q 186.35 68.05 189.6 71.4 192.8 74.7 197.5 74.7
L 201.4 74.7
Q 202.7 74.7 203.5 73.9 204.3 73 204.3 71.65 204.3 70.35 203.5 69.55 202.7 68.7 201.4 68.7
L 197.5 68.7
Q 196.85 68.65 196.25 68.55
L 205.15 59.85
Q 206.45 58.85 206.45 57.4 206.45 56.3 205.6 55.3 202.3 51.8 197.5 51.8 192.8 51.8 189.6 55.1 186.35 58.4 186.35 63.25
M 193.8 59.45
Q 195.3 57.85 197.5 57.85 198.05 57.9 198.65 58
L 192.3 64.1
Q 192.25 63.7 192.25 63.25 192.3 61 193.8 59.45 Z"/>
</g>

<g id="Layer0_29_FILL">
<path fill="#1C5A7D" stroke="none" d="
M 37.7 55.1
Q 34.5 58.4 34.5 63.25 34.5 68.05 37.7 71.4 40.95 74.7 45.65 74.7
L 49.5 74.7
Q 50.85 74.7 51.65 73.9 52.45 73 52.45 71.65 52.45 70.35 51.65 69.55 50.85 68.7 49.5 68.7
L 45.65 68.7
Q 44.95 68.65 44.4 68.55
L 53.3 59.85
Q 54.6 58.85 54.6 57.4 54.6 56.3 53.75 55.3 50.4 51.8 45.65 51.8 40.95 51.8 37.7 55.1
M 40.45 64.1
Q 40.4 63.7 40.35 63.25 40.4 61 41.95 59.45 43.45 57.85 45.65 57.85 46.2 57.9 46.75 58
L 40.45 64.1 Z"/>
</g>

<g id="Layer0_30_FILL">
<path fill="#1C5A7D" stroke="none" d="
M 74.05 51.85
Q 72.9 51.9 72.15 52.6 71.45 53.15 70.5 54.45
L 67.1 59.25 63.6 54.45
Q 62.65 53.2 61.95 52.65 61.15 51.9 60.05 51.8 58.7 51.9 57.85 52.75 57 53.45 57 54.55 57 55.75 58.35 57.35
L 62.85 62.7 57.7 69.25
Q 56.45 71 56.45 72 56.45 73 57.35 73.85 58.3 74.7 59.5 74.7 60.65 74.7 61.35 73.95 62.05 73.4 63 72.1
L 67.1 67 71.05 72.1
Q 71.95 73.35 72.75 73.95 73.55 74.7 74.65 74.7 75.9 74.7 76.8 73.85 77.7 73.1 77.7 72.05 77.7 71.05 76.4 69.25
L 71.25 62.7 75.75 57.35
Q 76.45 56.5 76.75 55.9 77.1 55.25 77.15 54.55 77.1 53.45 76.25 52.7 75.35 51.9 74.05 51.85 Z"/>
</g>

<g id="Layer0_31_FILL">
<path fill="#1C5A7D" stroke="none" d="
M 208.6 54.7
L 208.6 51.95 209.6 51.95 209.6 51.55 207.1 51.55 207.1 51.95 208.15 51.95 208.15 54.7 208.6 54.7 Z"/>
</g>

<g id="Layer0_32_FILL">
<path fill="#1C5A7D" stroke="none" d="
M 213 54.7
L 213 51.55 212.35 51.55 211.45 54.25 210.6 51.55 210 51.55 210 54.7 210.4 54.7 210.4 52.9
Q 210.4 52.75 210.4 52.5 210.4 52.3 210.4 52.15
L 210.4 52.05 211.3 54.7 211.7 54.7 212.55 52.05
Q 212.55 52.3 212.55 52.55 212.55 52.8 212.55 52.9
L 212.55 54.7 213 54.7 Z"/>
</g>
</defs>

<g transform="matrix( 1, 0, 0, 1, 0,0) ">
<use xlink:href="#Layer0_0_FILL"/>
</g>

<g transform="matrix( 1, 0, 0, 1, 0,0) ">
<use xlink:href="#Layer0_1_FILL"/>
</g>

<g transform="matrix( 1, 0, 0, 1, 0,0) ">
<use xlink:href="#Layer0_2_FILL"/>
</g>

<g transform="matrix( 1, 0, 0, 1, 0,0) ">
<use xlink:href="#Layer0_3_FILL"/>
</g>

<g transform="matrix( 1, 0, 0, 1, 0,0) ">
<use xlink:href="#Layer0_4_FILL"/>
</g>

<g transform="matrix( 1, 0, 0, 1, 0,0) ">
<use xlink:href="#Layer0_5_FILL"/>
</g>

<g transform="matrix( 1, 0, 0, 1, 0,0) ">
<use xlink:href="#Layer0_6_FILL"/>
</g>

<g transform="matrix( 1, 0, 0, 1, 0,0) ">
<use xlink:href="#Layer0_7_FILL"/>
</g>

<g transform="matrix( 1, 0, 0, 1, 0,0) ">
<use xlink:href="#Layer0_8_FILL"/>
</g>

<g transform="matrix( 1, 0, 0, 1, 0,0) ">
<use xlink:href="#Layer0_9_FILL"/>
</g>

<g transform="matrix( 1, 0, 0, 1, 0,0) ">
<use xlink:href="#Layer0_10_FILL"/>
</g>

<g transform="matrix( 1, 0, 0, 1, 0,0) ">
<use xlink:href="#Layer0_11_FILL"/>
</g>

<g transform="matrix( 1, 0, 0, 1, 0,0) ">
<use xlink:href="#Layer0_12_FILL"/>
</g>

<g transform="matrix( 1, 0, 0, 1, 0,0) ">
<use xlink:href="#Layer0_13_FILL"/>
</g>

<g transform="matrix( 1, 0, 0, 1, 0,0) ">
<use xlink:href="#Layer0_14_FILL"/>
</g>

<g transform="matrix( 1, 0, 0, 1, 0,0) ">
<use xlink:href="#Layer0_15_FILL"/>
</g>

<g transform="matrix( 1, 0, 0, 1, 0,0) ">
<use xlink:href="#Layer0_16_FILL"/>
</g>

<g transform="matrix( 1, 0, 0, 1, 0,0) ">
<use xlink:href="#Layer0_17_FILL"/>
</g>

<g transform="matrix( 1, 0, 0, 1, 0,0) ">
<use xlink:href="#Layer0_18_FILL"/>
</g>

<g transform="matrix( 1, 0, 0, 1, 0,0) ">
<use xlink:href="#Layer0_19_FILL"/>
</g>

<g transform="matrix( 1, 0, 0, 1, 0,0) ">
<use xlink:href="#Layer0_20_FILL"/>
</g>

<g transform="matrix( 1, 0, 0, 1, 0,0) ">
<use xlink:href="#Layer0_21_FILL"/>
</g>

<g transform="matrix( 1, 0, 0, 1, 0,0) ">
<use xlink:href="#Layer0_22_FILL"/>
</g>

<g transform="matrix( 1, 0, 0, 1, 0,0) ">
<use xlink:href="#Layer0_23_FILL"/>
</g>

<g transform="matrix( 1, 0, 0, 1, 0,0) ">
<use xlink:href="#Layer0_24_FILL"/>
</g>

<g transform="matrix( 1, 0, 0, 1, 0,0) ">
<use xlink:href="#Layer0_25_FILL"/>
</g>

<g transform="matrix( 1, 0, 0, 1, 0,0) ">
<use xlink:href="#Layer0_26_FILL"/>
</g>

<g transform="matrix( 1, 0, 0, 1, 0,0) ">
<use xlink:href="#Layer0_27_FILL"/>
</g>

<g transform="matrix( 1, 0, 0, 1, 0,0) ">
<use xlink:href="#Layer0_28_FILL"/>
</g>

<g transform="matrix( 1, 0, 0, 1, 0,0) ">
<use xlink:href="#Layer0_29_FILL"/>
</g>

<g transform="matrix( 1, 0, 0, 1, 0,0) ">
<use xlink:href="#Layer0_30_FILL"/>
</g>

<g transform="matrix( 1, 0, 0, 1, 0,0) ">
<use xlink:href="#Layer0_31_FILL"/>
</g>

<g transform="matrix( 1, 0, 0, 1, 0,0) ">
<use xlink:href="#Layer0_32_FILL"/>
</g>
</svg>
